<svg version="1.2" xmlns="http://www.w3.org/2000/svg" viewBox="0 0 523 96" width="523" height="96"><style>.A{fill:#f00}</style><path fill-rule="evenodd" class="A" d="m11.5 27.1v0.3l-0.6 0.9q2.1-0.5 4.3-0.8q2.2-0.4 4.4-0.7q2.2-0.3 4.4-0.5q2.2-0.1 4.4-0.2l3.4-0.2q17.1-0.5 17.1 0.2l-0.3 1h0.4l5.6-1.8l0.8-0.2l0.4 1.7q0.1 0.3 0.1 0.6q-0.1 0.3-0.1 0.7q-0.1 0.3-0.2 0.6q-0.1 0.3-0.3 0.6q0.7-0.1 0.8 1.7v0.7l-0.2 0.1v0.2l-1-0.3q-0.2 0.1-0.5 0.2q-0.2 0.1-0.5 0.2q-0.3 0-0.5 0q-0.3 0.1-0.6 0.1h-0.5l-0.3-0.3l-0.1-1.2l0.2-0.8q-0.3 0-0.6 0q-0.2-0.1-0.4-0.1q-0.3-0.1-0.5-0.3q-0.2-0.1-0.4-0.3l-1.1 0.4l0.9 1.2q-0.5 0.4-1 0.7q-0.6 0.4-1.1 0.6q-0.6 0.2-1.2 0.3q-0.6 0.1-1.2 0.2h-0.4l-8.7 0.3l-0.9 0.2v-0.2l0.2-1h-0.1q-1 0.5-1.9 0.8q-1 0.3-2 0.5q-1 0.2-2 0.3q-1.1 0.2-2.1 0.2l-13 0.3l-3.1 0.3l-0.2-0.6q-1.2 0.3-2.5 0.5q-1.3 0.2-2.6 0.3q-1.3 0.2-2.6 0.3q-1.2 0.1-2.5 0.1l-0.8-1.6v-0.2q0-0.5 1.8-1.1l0.9 0.2v-0.2l-0.3-0.6l0.3-0.7l-0.2-0.2h-0.3q-0.7 1.2-1.3 1.3l-0.3-0.5l-0.1-0.3l0.1-1.9l-0.7-1.2v-0.2zm1.4 2.1l2.6-1.5q0 0.2 0 0.4q0 0.2 0.1 0.4q0.1 0.2 0.2 0.4q0.1 0.1 0.2 0.3l0.1 0.8h-0.7l-1.6 0.6l-0.9-1.1zm13.3 0l0.3-0.4h0.5q0.4 0 0.7 0q0.3 0.1 0.6 0.2q0.3 0.1 0.6 0.2q0.3 0.1 0.6 0.3l-0.3 0.7l0.4 0.3l0.8-0.2v0.6l-0.8 0.2l-0.8 0.1v0.3h-0.5zm-16.3 1.5l1.4-0.2l0.1 0.6q-0.1 0.2-0.3 0.4q-0.1 0.2-0.3 0.3q-0.2 0.1-0.4 0.2q-0.2 0-0.5 0l0.2-0.8zm36.1 5.5l0.8-0.2q0.2 0.3 0.3 0.7q0.2 0.4 0.3 0.8q0.2 0.4 0.2 0.8q0.1 0.4 0.2 0.8l-1.2 0.4q-2.5-0.2-2.5-1.7v-0.2l0.4-0.7q-0.2-0.6-1.5-0.5l-1.8 0.1v-0.2q0.1-0.2 0.2-0.4q0.2-0.2 0.4-0.3q0.2-0.1 0.4-0.2q0.2 0 0.4 0zm-32.8 0.9q4.9-0.3 6.3 5.9v1.2q0 0.3 0 0.7q0 0.3-0.1 0.7q0 0.3-0.1 0.7q0 0.3-0.1 0.7l-1-0.1q-1.8 1-1.7 2l0.3 0.3q0.3-0.1 0.5-0.2q0.3-0.2 0.5-0.2q0.3-0.1 0.6-0.2q0.2-0.1 0.5-0.1l0.2 0.1l-0.1 1l0.7 4.6q0.2 3.1-1.5 3.2q0.3 0.2 0.6 0.5q0.2 0.3 0.4 0.6q0.2 0.3 0.3 0.7q0.1 0.4 0.2 0.7v0.7q0.1 1.1-0.3 1.1q0.2 0.3 0.2 0.6q0.1 0.2 0.2 0.5q0 0.2 0.1 0.5q0 0.3 0 0.6l0.3 5.4q-1.3 0-1.5 0.7v0.3h0.2q0.2-0.1 0.3-0.3q0.2-0.1 0.4-0.2q0.1-0.2 0.3-0.2q0.2-0.1 0.4-0.2l1.6 4q2.5 3.7 10.3 3.3l1.7-0.3l0.1 0.2l0.1 0.6l-0.2 0.2v0.2l0.5 0.1l0.5-0.2v-0.5q0-0.4-0.7-0.4v-0.3l0.5-0.1q0.2 0.2 0.4 0.3q0.2 0.1 0.4 0.2q0.3 0.1 0.5 0.1q0.3 0.1 0.5 0.2v0.1q-1.1 0.4-1.1 0.7v0.2q0.3-0.2 0.5-0.3q0.3-0.2 0.6-0.3q0.3-0.1 0.6-0.2q0.3-0.1 0.6-0.1l0.8 0.4q0.4-0.5 1.6-0.6v-0.1q-0.6-0.2-1.1-0.3q-0.6-0.1-1.2-0.2q-0.6-0.1-1.1-0.2q-0.6 0-1.2-0.1v-0.1q-0.1-0.9 4.2-1.7q-0.2-0.1-0.3-0.3q0-0.1-0.1-0.2q-0.1-0.2-0.1-0.3q-0.1-0.2-0.1-0.3q0.2-2.4 0.5-2.4l0.9 0.3v-0.2l-0.3-0.9l-0.1-2l0.1-8.7l-0.5-2.3l0.2-0.2h0.2l1.1 0.5l0.2-0.2v-0.2q-0.1-0.8-1.6-2l-0.4-1q0-0.1 0-0.2q0-0.1 0-0.3q0.1-0.1 0.1-0.2q0.1-0.1 0.2-0.2q0-0.1 0.1-0.1q0.1-0.1 0.2-0.1q0.1-0.1 0.3-0.1q0.1 0 0.2 0h0.2q-1.2-0.9-1.4-3.6v-4.4l0.1-0.2l1.7 0.3l3.8-1.4q-1-0.7-1-1.2h-0.2q-0.1 1-0.4 1h-0.2q-1 0.1-3.3-1.5q-0.7 0.1-0.7-0.3l-0.1-2.1q-0.1-0.5 2.1-0.9l1.4-0.1l0.4 0.3q-0.9 1.5-1.6 1.6h-0.5q-0.3 0-0.3-0.8l-0.4 0.3l0.9 1l-0.5 0.2l2.6 1.3l0.4-0.5q-1.3-0.7-1.3-0.9v-0.2q0-0.3 0.4-0.3l3.5-0.4q2.4-0.1 2.5 0.6q-0.4 1.3-0.6 1.3l-1.5-0.4v0.3q0.1 0.2 0.2 0.3q0.1 0.2 0.2 0.3q0.2 0.2 0.3 0.3q0.2 0.1 0.3 0.2h0.4q0.3 0 0.3-0.5l0.1-0.2h0.2l0.3 0.5l-0.7 2.3l0.2 0.2v0.1q-2.3 1.3-2.5 1.8l0.3 0.3l1.8-0.1v-0.1l-0.5-0.7v-0.1l1-0.1q0.1 0.5 0.2 1q0.1 0.5 0.2 0.9q0.1 0.5 0.2 1q0 0.5 0.1 1q0 0.5 0 0.9q0 0.5-0.1 0.9q-0.2 0.4-0.4 0.8q-0.2 0.4-0.5 0.8q1.3-0.1 1.4 1.7l0.3 5.6q0.7 16.7-7.8 21.1q-0.9 0.4-1.8 0.7q-0.9 0.3-1.9 0.5q-1 0.2-1.9 0.4q-1 0.1-2 0.1q-0.8 0.5-5.2 0.9q-8.7 0.5-13.6-4.9l1-0.8l1.8 0.2l1-0.1l1.6-0.4q0 0.6 4.1 1l0.5 0.3l0.2-0.2v-0.3l-0.7-1l-1 0.2l-6.1-0.5h-0.5q-0.3 0.1-0.6 0.2q-0.3 0.1-0.6 0.2q-0.3 0.1-0.6 0.3q-0.2 0.2-0.4 0.4l-0.4 0.1q-0.5 0-2.3-3.7v-0.2q0-0.4 0.6-0.5l2.4 0.4l0.4-0.5v-0.5q0-0.6-2.4-0.9q-0.1-0.1-0.2-0.3q-0.1-0.2-0.1-0.4q-0.1-0.1-0.2-0.3q0-0.2 0-0.4l-1.3 0.4q-0.6 0-1.3-5.4l-0.4-11.3l-0.3-1.5l0.2-0.1q0.4 0.1 0.9 0.3q0.4 0.1 0.9 0.2q0.5 0 0.9 0.1q0.5 0 1 0h0.1q0.4 0 0.9-0.1q0.4-0.1 0.8-0.3q0.3-0.1 0.6-0.4q0.4-0.3 0.6-0.7q-0.4 0.2-0.8 0.3q-0.5 0.1-0.9 0.2q-0.4 0.1-0.9 0.1q-0.4 0.1-0.8 0.1l-1.3 0.1q-2.2 0.1-2.2-0.4l-0.1-2.1q0-0.4 0-0.7q0.1-0.3 0.2-0.6q0.1-0.3 0.4-0.5q0.2-0.3 0.4-0.4q0-0.4-0.1-0.8q-0.1-0.4-0.3-0.7q-0.1-0.4-0.4-0.7q-0.2-0.3-0.5-0.6q0-0.1 0-0.2q0-0.2 0.1-0.3q0-0.1 0.1-0.2q0-0.2 0.1-0.3q0.1-0.1 0.2-0.1q0.1-0.1 0.3-0.2q0.1 0 0.2 0q0.2-0.1 0.3 0l1.5-0.1q-0.1 0.5 0.1 1q0.1 0.6 0.5 1q0.3 0.4 0.8 0.6q0.5 0.3 1 0.4l0.7 0.1q1.2-0.1 1.3-2v-0.4q-0.2 0.1-0.5 0.2q-0.3 0.1-0.5 0.3q-0.3 0.2-0.5 0.4q-0.2 0.2-0.4 0.4h-0.3q-0.4 0-2.9-2.8q-0.3-0.1-0.6-0.2q-0.2-0.1-0.5-0.2q-0.3-0.1-0.5-0.1q-0.3 0-0.6-0.1v-0.1q1.4-0.5 1.4-0.7v-0.2q-1 0-1-0.3q0.1-0.1 0.2-0.3q0-0.1 0.2-0.2q0.1-0.1 0.3-0.1q0.1-0.1 0.3-0.1l-0.1-0.3h-0.3l-0.6 0.5v-0.3q0.2-4.1 3.4-4.3zm28.1 0v0.2q-0.1 0.2-0.3 0.4q-0.2 0.2-0.4 0.3q-0.2 0.1-0.5 0.2q-0.2 0-0.4 0h-0.4v-0.5q0.1-0.2 0.3-0.4q0.1-0.2 0.3-0.3q0.3-0.2 0.5-0.3q0.2 0 0.5-0.1zm-0.2 11.1q-0.1-1.2 1.8-1.8q1.3 0 1.5 0.6q-1.1 0.1-1.1 0.7v0.2l-1-0.3q-0.1 0.1-0.2 0.2q-0.1 0.1-0.3 0.2q-0.1 0-0.3 0.1q-0.1 0-0.3 0.1zm4.5 1.2q0.1-0.2 0.3-0.4q0.2-0.2 0.4-0.3q0.2-0.1 0.4-0.2q0.3 0 0.5 0l0.8 0.1l0.1 0.3l-0.2 0.2l-0.3-0.3q-0.2 0.1-0.3 0.3q-0.1 0.1-0.3 0.2q-0.2 0.1-0.4 0.1q-0.1 0.1-0.3 0.1l-0.5 0.1zm-35 9.3h0.3q0.4 0 0.8 0.1q0.3 0 0.6 0.2q0.4 0.2 0.6 0.5q0.3 0.2 0.4 0.6l-0.1 1h-0.8q-0.4-0.2-0.7-0.4q-0.3-0.3-0.5-0.6q-0.2-0.3-0.4-0.6q-0.1-0.4-0.2-0.8zm35.7 1.5l0.2-0.1l0.1-0.1l1.7-0.1l0.2 0.1q-0.1 0.2-0.1 0.3q-0.1 0.1-0.2 0.2q0 0.1-0.1 0.1q-0.1 0.1-0.3 0.1q-1.4 0.1-1.5-0.5zm-27.4 2.2h0.3v0.2h-0.3zm-14.1 26l5-0.4q2.3-0.1 2.4 1l0.2-0.2q0.3 0 0.2-0.8l0.2-0.2l29.5-1.5l0.2 0.1h0.1q0.1 1-1.7 1.3v0.3l2.1-0.1v0.2q0.1 1-2.3 2.2v0.3q0.7 0.2 1.5 0.4q0.7 0.1 1.5 0.1q0.7 0.1 1.5 0.1q0.7 0 1.4 0v-0.2l-0.4-1.5v-0.5l-1.5-0.4l-0.6 0.1l-0.1-0.4l0.6-0.8l-0.3-1.3l14.4-0.8q0.3 0 0.3 0.5v5.1l0.2 1.6l-20 1.1v-0.3l2.1-1.3q0-0.3-0.9-0.5q-0.5 0.1-2.3 2.1l-33.8 1.8l-0.3-0.3v-0.2l-0.2-6.5l0.1-0.2zm7.4 5.2l0.5-0.2l1.6 0.4q0 0.3-0.7 0.7l-1.4-0.6zm81.5-70.8l0.4 0.3l0.4 4.6q-0.1 2.3-0.6 2.3l-49.1 2.6l-0.4-0.3l-0.3-6.6l0.3-0.3zm-22.7 5l1.3-0.6q0 0.7 1.3 1.1v0.2q-1.9 0.1-1.9 0.9h-0.5l0.1-1.1zm-12.6 7.2q2.7-0.1 3.6 1.6q0.2 0.6 0.4 1.2q0.2 0.6 0.3 1.3q0.1 0.6 0.2 1.3q0.1 0.6 0.1 1.2l0.3 7.6l-0.2 0.2h-0.3q-0.3 0-0.4-0.5l-0.1-0.1h-0.5l0.4 0.9l0.1 2l0.1 0.2q0 0.3 0.9 0.2l0.1 0.2l1.2 21.6l14.6-0.4l4.2-0.6l1 1h0.4q0.1-0.1 0.3-0.1q0.1-0.1 0.3-0.1q0.1-0.1 0.3-0.2q0.1-0.1 0.2-0.2q1.7-0.1 2.6 3.3l0.1 1q0.1 3-3.5 3.1l-5.5 0.7l-6.7 0.1l-9.5 0.9h-1.2q-5 0.3-6.2-1.9q-0.5 0-1.4-7.9l-0.3-12.4l-1.2-13.3l-0.1-1.6q-0.4-7.8 3-9.9l1.4-0.4zm38.9 48.8l0.3 6.5l-0.3 0.4l-49.3 2.5l-0.3-0.3l-0.2-2.6q0-0.2 0-0.4q0.1-0.3 0.2-0.5q0-0.2 0.1-0.4q0.2-0.2 0.3-0.4q-0.5-0.3-0.8-2.4l0.2-0.2l49.5-2.5zm6-60.3h0.2q-0.1-0.8 3.5-1.5l1.1-0.1q0.3 0 0.6 0q0.3 0 0.5 0.1q0.3 0.1 0.5 0.3q0.2 0.1 0.4 0.3q0.4-0.2 0.8-0.4q0.4-0.2 0.8-0.3q0.4-0.1 0.8-0.2q0.4-0.1 0.9-0.1l11.6-0.4q1.1 1.9 2.1 1.8v-0.3l-0.6-1.3q0.2-0.1 0.4-0.2q0.2-0.1 0.4-0.2q0.2 0 0.4-0.1q0.2 0 0.4-0.1h0.8l4.7 0.3l1.3-0.4l0.3 6.8l-0.1 0.2v0.2l-20 0.9l-20 1l-1.2 0.2q-0.7-1-3.2-1.4l0.1 0.4q0 0.4 1 0.7v0.3l-2.6 0.3l-7.7 0.2l-0.2 0.2l-0.1-0.2v-3.1l-0.4-3.9l0.1-0.2l21.8-1.1q0.4 0 0.6 1.3zm-12.5 0.6l1.5 0.3v0.1l-0.6 1.1h-0.3q-0.4 0-0.5-1zm-7.5 2.4l1.5-0.4v1.1l-1.1 0.1l-0.3-0.3zm36.2-0.5l1.8-1.4l0.3 0.8q-0.1 0.2-0.3 0.4q-0.2 0.2-0.4 0.3q-0.3 0.1-0.5 0.2q-0.3 0-0.5 0.1zm25.7-6.2l8.7-0.4l-0.4 2q0.6-0.1 2-2.1l11.6-0.8q2.7 0.1 2.7 0.7q0.3-0.2 0.6-0.4q0.3-0.2 0.6-0.3q0.4-0.1 0.7-0.2q0.3-0.2 0.7-0.2l1.1-0.1q2.7-0.1 4 4.3l0.1 1.1q0.1 1.8-0.7 1.8l-3.1 0.4l-0.6-0.8q-1.3 0.2-2.6 0.4q-1.3 0.2-2.6 0.4q-1.3 0.2-2.6 0.3q-1.3 0.1-2.6 0.2l-24.6 1.2l-1.5 0.2q-0.7-1.3-1-1.3q-0.3 1.2-2.7 1.5l-10.9 0.4l-0.2-3.8l1 0.2l1.7-0.5l-0.1-0.1l-0.6-0.6l-1.8 0.5q-0.1-0.3-0.2-0.6q-0.1-0.3-0.1-0.6q-0.1-0.4-0.1-0.7q-0.1-0.3-0.1-0.7l0.2-0.1l0.5-0.1q0.3 0 0.5 1.3l0.2 0.2h0.3l0.3-1.7zm-45 9.3q0.8-1.2 1.5-1.3l0.6 0.3q0.1 0.8-1.4 0.9zm28.2 5.3v0.5q0 0.5-0.1 1q-0.2 0.5-0.4 0.9q-0.2 0.5-0.6 0.9q-0.3 0.4-0.7 0.7l-2.5-0.5l-0.8 0.2v0.3h0.4v0.2l1.1-0.2l1-0.1v0.2q0.1 0.7-3.2 1h-1.2l-0.3-0.3v-0.1q0.1-0.7 1.4-0.8v-0.1q-0.5-0.1-1-0.2q-0.5-0.1-1-0.2q-0.5-0.1-1-0.3q-0.5-0.2-1-0.4q-0.2 2.3-1.7 2.3l-3.4 0.7l-0.2-0.1l1.6 29.1l-2.1 0.8h-0.2l-0.2-0.2l-0.1 0.1v0.1q0.1 0.2 0.2 0.3q0.1 0.1 0.2 0.2q0.1 0.1 0.3 0.1q0.1 0 0.3 0l1.5-0.4l0.1 0.2l0.1 1.9q0.1 0.4-0.4 0.4q0.1 0.2 0.2 0.4q0.2 0.2 0.3 0.4q0 0.2 0.1 0.5q0.1 0.2 0.1 0.5q0.1 2.4-0.7 2.5l-3.6-0.2h-0.5v0.2q0.8 0.1 0.9 0.5l-0.6 0.8h0.1l2.1-0.9l0.8-0.1l0.4 0.3q-0.3 0.4-0.6 0.7q-0.4 0.4-0.7 0.6q-0.4 0.3-0.9 0.4q-0.4 0.2-0.9 0.3h-0.6q-5-1.1-5.2-5.8l-0.1-1q-0.1-1.3 0.9-1.3l0.7-0.1q-0.4-0.2-0.7-0.6q-0.3-0.4-0.5-0.8q-0.2-0.4-0.3-0.8q-0.1-0.5-0.2-1q0-0.4 0.1-0.8q0-0.5 0.1-0.9q0.1-0.5 0.2-0.9q0.1-0.4 0.3-0.8q-0.2-0.9-0.4-1.8q-0.2-0.8-0.4-1.7q-0.1-0.9-0.2-1.8q-0.1-0.9-0.2-1.7l-0.7-16.8q-1.1-0.7-6.8-0.4l-2.1 0.1q-5.8 0-5.9-2q-0.3 0-0.3-0.8l-0.1-0.7q-0.1-2.4 1.2-3.3q0.5-0.2 1-0.4q0.6-0.1 1.1-0.2q0.6-0.1 1.1-0.2q0.6-0.1 1.1-0.1l6.4-0.2l0.2-0.1v0.1l-0.3 0.5q1.4 0.9 1.4 1.3l-0.1 0.5h0.1l3.2-1.9l0.4 0.8q1.6-0.2 1.5-1.7h0.5v0.2l2-0.3l2.1-0.1l5.1-0.5q11.6-0.5 11.8 2.9zm-17.9 0.8q-0.1-1.7 3.3-2.8q-1.2 4-2.9 4l-0.5 0.1v-0.2l0.5-0.2zm-4.9 0.4q0-0.2 0.8-0.5l1.8 0.4q0.1 0.8-1.4 0.9h-0.3l0.1-0.8zm16.3 0.8q0.2-0.3 0.4-0.5q0.2-0.2 0.4-0.3q0.3-0.2 0.5-0.3q0.3-0.1 0.6-0.2l0.5 0.2q-1.1 1.3-1.7 1.4zm-23.4 3q0.7-1.8 2.1-1.9q0.7 0.3 0.8 0.6v0.3l-0.9 0.1q-0.2 0.2-0.4 0.3q-0.2 0.2-0.4 0.3q-0.3 0.1-0.5 0.2q-0.2 0.1-0.5 0.1zm8.8 0.9q1.1-0.1 1.2 0.9l-0.3 0.8l0.1 0.2q2.9 0.2 2.9 1l-0.3 0.3q-0.4-0.3-0.8-0.5q-0.4-0.2-0.8-0.3q-0.4-0.1-0.9-0.2q-0.4 0-0.9 0l0.3-0.5l-0.5-1.6zm-0.1 4.3h0.1l2.9 1.2q-0.1 0.3-0.8 0.7l-1.8-0.3l0.1-0.8v-0.3q0-0.4-0.5-0.3zm0.3 3.7l2.4 0.7v0.2l-1.6 0.4h-0.2v-0.2h0.3v-0.3q0-0.5-1-0.4v-0.2zm0.8 2.4h0.5l2.8 1.2v0.6l-0.1 0.2l-1.3-0.3l-0.3 0.4q-0.4-0.1-0.6-0.3q-0.3-0.2-0.5-0.4q-0.2-0.3-0.4-0.6q-0.1-0.3-0.1-0.6zm-0.7 11.4l0.8-0.1q1 1.3 1.4 1.3l-0.5 0.5q-0.3 0-0.5-0.1q-0.3 0-0.5-0.1q-0.3 0-0.5-0.1q-0.3-0.1-0.5-0.3zm2.8 3.3l1.6 0.1l-0.3 0.7l-1.6-0.1zm-3.5 3l0.5-0.5l2.8-0.2v0.5q-1.9 0.1-1.9 0.9q-0.1-0.2-0.3-0.3q-0.1-0.1-0.3-0.2q-0.2-0.1-0.4-0.2q-0.2 0-0.4 0zm-3.8 14.6q0.9 0 1.7 0q0.9 0.1 1.8 0.2q0.9 0.1 1.8 0.2q1.4-0.3 2.8-0.6q1.4-0.2 2.8-0.4q1.4-0.2 2.8-0.3q1.4-0.1 2.8-0.1q8.6-0.4 17.9-0.4l-0.1 1.6l0.3 1.6l-0.8 0.9q0.2 0.1 0.4 0.2q0.2 0.1 0.4 0.3q0.1 0.2 0.2 0.4q0.1 0.3 0.1 0.5v1l-0.3 0.3l-24.6 1.3v-0.1l0.3-0.5l-0.5-0.5q0 0.2-0.1 0.4q-0.1 0.2-0.3 0.3q-0.2 0.2-0.4 0.3q-0.2 0-0.4 0q-0.4 0-0.7-0.1q-0.3 0-0.6-0.1q-0.3-0.1-0.5-0.3q-0.3-0.1-0.6-0.3q0.1 1.1-1.6 1.2l-1.9 0.1l-0.4-0.3v-0.6l0.3-0.6v-0.1h-0.3q-0.3 0-0.6 1.7l-4.5-0.1q-5.5 0.6-14.5 1.1h-1.5l-0.3-0.3l-0.1-1.8q0-0.5 0.9-0.5q-0.2-0.3-0.4-0.7q-0.2-0.3-0.4-0.7q-0.1-0.3-0.2-0.7q-0.1-0.4-0.1-0.8l-0.1-1.3q0-0.3 0.5-0.4l17.2-1q0.9-0.1 1.8 0zm2.5 0.6q2.7 0.8 2.7 1.3v0.2h-0.2l-1.3-0.5l-0.5 0.6q-0.4-0.1-0.7-1.3zm-5.5 2.4q0-0.6 1.6-1.2h0.2q-0.1 0.2-0.2 0.4q-0.1 0.2-0.2 0.4q-0.2 0.2-0.3 0.4q-0.2 0.1-0.4 0.3h-0.1zm-9.5 1h0.1l0.3 1.1v0.4h-0.5q-0.7-0.8-1.2-0.8v-0.1h0.2l0.6 0.1q0.5 0 0.5-0.7zm10.4 1.6l0.5-0.5h0.3q1.8-0.1 1.8 0.4v0.1q0 0.3-0.8 0.6q-1.8-0.2-1.8-0.6zm22.4-62l2.1-0.7v1.1h-0.6l-1.8-0.2q-0.5 0-0.5 1h-0.3l-0.2-0.1l0.3-1.2l0.8 0.1zm35.4-3.1q0.2-1 0.5-1q0.9 1.1 1.7 1v0.4l-0.2 0.1q-0.2 0-0.5 0q-0.2 0-0.5-0.1q-0.3-0.1-0.5-0.2q-0.2-0.1-0.5-0.2zm-4 0.7l1.8 0.5l1.3-0.2l0.4 1l-0.3 0.3h-0.2q0-1-0.4-0.9l-1.8 0.4h-0.8zm9.1 7.4q5.6 3.7 5.9 8.8l0.1 1.1q0.1 1.4-0.1 2.8q-0.2 1.4-0.8 2.7q-0.6 1.3-1.4 2.4q-0.9 1.1-2 2q-0.2 0.9-0.4 0.9h-0.2l-1.2-1.4q-1.3 3.5-2.8 3.6l-0.5-0.7h-0.3q-0.4 0.1-0.6 1.4q7.6 6.2 9.6 10.5l0.1 0.5l0.1 0.5l-1 1q0.1 0.5 2.4 0.7l0.3 0.5l0.1 0.5h-0.5v0.2q0.3 0.3 0.6 0.6q0.3 0.4 0.5 0.8q0.3 0.4 0.4 0.8q0.2 0.5 0.3 0.9v0.2q0.1 1.2-2.7 1.8l-1.8 0.9l-0.4-1.1h-0.8l-1 1.6q-1.4-0.5-1.4-0.8l0.3-0.5q-2.2-1-2.2-2l0.1-0.7q-0.5-0.1-1-0.3q-0.4-0.2-0.8-0.6q-0.3-0.4-0.5-0.9q-0.2-0.5-0.2-1v-0.3q0-1.2 1.6-2.1h-0.5l-2.1 0.8q0-0.5-4.6-6v-0.3l0.1-0.2h0.2l1 0.1h0.1v-0.5q-0.7 0-5.7-3q-0.6-0.3-1.2-0.5q-0.6-0.2-1.2-0.4q-0.7-0.1-1.3-0.2q-0.7-0.1-1.3-0.1q-2.8 0.1-2.7 1.1l-0.3 2.2l0.8 8v0.8h-0.1l-0.7-0.1q-0.7 0-1.1 1.5l0.2 0.7q-0.3 0.1-0.7 0.2q-0.3 0.1-0.6 0.3q-0.3 0.1-0.6 0.3q-0.4 0.2-0.6 0.4l0.1 0.2v0.2q0.9-0.4 0.8-0.9h0.2l1.7 1.7q1.5 0 1.5 0.4q-0.2 0.2-0.4 0.5q-0.2 0.2-0.3 0.5q-0.1 0.3-0.1 0.6q-0.1 0.3 0 0.6q-0.6 0.1-1.1 0.2q-0.5 0.2-0.9 0.4q-0.5 0.2-0.9 0.6q-0.5 0.3-0.8 0.6l-1.2 0.4q-1.3-0.1-1.3-0.6q0-0.4 1.1-0.7v-0.5h-0.2l-1.2 1.1q-2.1-0.9-2.2-4l2.8-1.6v-0.2l-0.5-0.1q-0.3 0.1-0.6 0.2q-0.3 0.2-0.5 0.4q-0.3 0.2-0.5 0.4q-0.2 0.3-0.4 0.6q-0.3 0-0.6-1.2l0.1-2.4l0.3-0.4l1.5 0.4l0.5-0.1l-0.1-0.5q0-0.5-1.5-0.8l-0.6 0.2l-0.4-0.9q0.1-1.7 0.4-1.7l-0.4-2.3l-0.3-5.1q0-0.3 1.4-0.7q0-0.3-1.5-0.4l0.1-1.2l-0.8-10.3l0.3-0.8l3.1 0.5v-0.2l-0.4-1.1h-0.2l-0.4 0.4l-0.4-0.5v-0.2l1.7-1.4q-1.4 0.1-1.5-1.6l-0.2 0.1q-0.2 0.1-0.4 0.2q-0.2 0.1-0.4 0.2q-0.2 0-0.4 0.1q-0.2 0-0.4 0v0.5q1.2 0.9 1.3 1.6q0 0.3-1.2 0.9q-0.4 0-0.7-2.6q-0.1-0.3 0-0.6q0-0.2 0.1-0.5q0.1-0.2 0.2-0.5q0.2-0.2 0.4-0.4q-0.2-0.3-0.4-0.5q-0.1-0.3-0.3-0.6q-0.1-0.3-0.2-0.6q0-0.3-0.1-0.6v-0.9q0.4-6 5.6-6.3q0.8-0.1 1.6-0.2q0.7-0.1 1.5-0.2q0.8-0.1 1.6-0.1q0.8-0.1 1.6-0.1q17.2-0.9 20.5 2zm-6.5 1.7l2.2 0.7q0 0.1-0.1 0.2q0 0.1-0.1 0.2q-0.1 0.1-0.2 0.2q-0.1 0-0.2 0.1q-0.2-0.2-0.4-0.3q-0.2-0.1-0.5-0.2q-0.2-0.1-0.5-0.2q-0.2 0-0.5 0v-0.2zm1.8 2.9q3.2-0.9 3.9-1.6l1.1 2.6q-0.3 0.1-0.5 0.2q-0.3 0.1-0.6 0.2q-0.2 0.1-0.5 0.2q-0.2 0.2-0.5 0.3q0-1.3-2.9-1.8zm-17.9 1.6q5.5-0.9 5.4-1.7l0.2-0.1v0.7q9.7 0.5 11.8 1.7q0.1 1.5 2.1 2.3q-0.9 1.9-1.1 6.8v0.2l-0.8-0.1h-0.2l-2.1 1.1v0.5l1.3-0.1q0 0.3-0.7 0.7l-2.7-0.5l-0.3 0.3v0.2l0.5 0.5h0.2l-0.2 0.5l0.1 0.1l1.8-0.1l0.5 0.5v0.1l-1.5-0.2h-0.5l-0.3 0.4v0.3q0.1 0.3 0.9 0.6q0.2 0 0.4-0.1q0.2-0.1 0.4-0.2q0.2-0.1 0.4-0.3q0.2-0.1 0.4-0.3v0.5q0 1.1 1.7 1.1q-0.1 0.1-0.2 0.3q-0.2 0.2-0.3 0.3q-0.2 0.1-0.4 0.2q-0.2 0-0.4 0h-2.5q-0.3-1.9-1.2-1.9q-0.5 0-0.5 0.4l0.1 1.6h-0.7l0.1 0.5l0.3 0.3l0.8-0.7h0.3q0 1-1.2 1.1h-0.5q-0.7 0-1-2.9v-0.3h0.2l0.1 0.1h0.5q0.3-0.1 0.6-0.2q0.2-0.1 0.4-0.2q0.3-0.2 0.4-0.4q0.2-0.2 0.4-0.5q-0.4-0.3-0.8-0.5q-0.4-0.3-0.9-0.4q-0.4-0.2-0.9-0.2q-0.5 0-1 0l-8.5 0.6h-0.1q-0.1-0.4-0.2-0.9q-0.1-0.4-0.3-0.9q-0.1-0.4-0.3-0.9q-0.2-0.4-0.4-0.8q0-0.3 0.8-0.6l-0.4-0.9l0.1-1.8q0-0.7-0.5-0.7q0.1-0.5 0.3-1q0.1-0.5 0.2-1.1q0-0.5 0.1-1.1q0-0.5 0-1.1zm14.7-1.1l0.5-0.5h0.6q1.2-0.1 1.3 0.4l-0.4 0.2zm-20 4q0.6-2 2-2.1h0.3q-0.3 0.3-0.5 0.7q-0.3 0.4-0.4 0.8q-0.2 0.4-0.3 0.8q-0.1 0.5-0.1 0.9q-0.6-0.1-1-1.1zm-0.9 5.8q0-0.6 2.6-1.5h0.3q0 0.2 0.1 0.4q0.1 0.1 0.1 0.3q0.1 0.1 0.3 0.2q0.1 0.1 0.2 0.2l-3.3 0.4h-0.1l-0.2 0.2zm30.5 1q0.2-0.3 0.6-0.6q0.3-0.3 0.7-0.5q0.3-0.2 0.7-0.3q0.4-0.2 0.8-0.2h0.2v0.1l-0.1 0.2q-2.3 0.7-2.3 1.6l0.1 0.2l0.1 0.1h-0.1zm-31 1.8q0.2-0.8 0.6-0.9l1.3 0.1l-1.4 1.6q-0.2 0-0.5-0.8zm3.2 10.5l1.3-0.1v0.7l0.4 1h-0.2l-0.1 0.1q-0.2-0.1-0.4-0.3q-0.2-0.1-0.4-0.3q-0.2-0.2-0.3-0.5q-0.2-0.2-0.3-0.4zm-4.1 5.6l0.3-0.3h0.1q0.4 0 0.7 0.7l-0.3 0.4zm4 7.2h0.2q0.1 0 0.3 0.1q0.1 0.2 0.3 0.3q0.1 0.1 0.1 0.3q0.1 0.2 0.1 0.4q0.1 0.8-0.4 1l-0.4-0.8l-1.6 0.6h-0.1l-0.1-0.7q1.7-0.1 1.6-1.2zm2.1 2q0-0.2 0.2-0.3q0.1-0.1 0.2-0.2q0.2-0.1 0.3-0.2q0.2 0 0.4 0h0.3l0.4 0.3v0.8h-0.2zm31.8 4.3q5.9-0.2 6 0.5v0.1l-0.2 0.2v0.2h0.2q0.2-0.1 0.4-0.2q0.3-0.1 0.5-0.2q0.2-0.2 0.3-0.3q0.2-0.2 0.4-0.4h0.6l0.4 0.3v0.6q0 0.4-1.8 0.9l-0.1 0.2v0.2l0.3 0.3h0.2q0.1-0.1 0.2-0.2q0.2-0.1 0.3-0.2q0.2-0.1 0.3-0.1q0.2-0.1 0.3-0.1l0.4 0.3l0.2 4.8l-0.3 0.3l-0.8 0.1q-1.6 0.1-1.7-1.1h-0.3q-0.2 0.3-0.5 0.4q-0.2 0.2-0.5 0.4q-0.2 0.2-0.5 0.3q-0.3 0.1-0.6 0.2h-0.3l-0.4-0.3l0.3-0.8h-0.2l-1.3 0.4l0.1 0.1h0.3v0.3l-11.5 1l-6.2 0.3l-12 0.3v-0.2l0.9-2.5l-0.7-1.1v-0.2q1.2 0 2-1.9l1 1l0.5-0.1l0.3-0.3l-2-1.1v-0.3l1.8 0.1l20.9-2.1zm-28.8 1.8l0.4 0.4l-2.5 3.2l2 0.4v0.3l-0.1 1.3l0.8-0.2l0.2 0.2v0.1q-0.2 0.3-0.4 0.4q-0.2 0.2-0.5 0.3q-0.2 0.1-0.5 0.2q-0.2 0.1-0.5 0.1v-0.5q-0.6 0.3-1.1 0.6q-0.6 0.3-1.2 0.5q-0.6 0.2-1.2 0.4q-0.6 0.1-1.2 0.2q-0.4 0-0.9 0q-0.4-0.1-0.8-0.2q-0.4-0.1-0.8-0.3q-0.4-0.2-0.7-0.5h-0.2q0.1 0.8-1.5 1.1l-6 0.1l-0.6 0.2l-0.2-0.1v-0.2l0.1-1l-0.6-5v-0.5l0.3-0.4l10-0.5v0.3q-1.6 0.4-1.6 0.8v0.1q0.9-0.3 1.8-0.6q0.9-0.2 1.8-0.4q1-0.3 1.9-0.4q0.9-0.2 1.8-0.3zm-15.9 3q0-0.7 1.1-1q1.8 0 1.8 0.4l-2.7 0.6zm10.7 0.6q0-0.3 0.8-0.4h0.1l-0.4 1.5q0.2 0.8 0.9 0.8v0.3l-1.1 0.2h-0.2v-0.8q-0.1-0.5-1.2-0.4q0-0.3 1.1-0.7h0.2zm9.5 0.5l2-0.3q0.8 0 1 0.4q-0.3 0.3-0.5 0.5q-0.3 0.2-0.6 0.4q-0.3 0.1-0.6 0.2q-0.4 0.2-0.7 0.2h-0.2zm74.4-68.9q1.8 1.3 2.1 6.3l-0.3 1.1l-28.2 1.2l-28.6 1.8l-0.2-0.1l-0.4-7.1l0.3-0.3zm39.9-1.8l0.1 0.2v0.1q0 0.2-0.2 0.4q-0.1 0.2-0.2 0.3q-0.2 0.1-0.4 0.2q-0.2 0-0.4 0l-1.5 0.1l2.4 1.5q-0.2 0.5-1 0.6h-1.1v0.4l0.3 0.3h0.2l1.9-0.8l0.4 0.3l0.1 2.6q0.1 0.9-0.4 1l-5.7 0.3q-1.2-1-1.3-1.4l0.2-0.5h-0.2l-1 0.4l-0.1-0.1v-0.2l1.1-1.1l-0.1-0.1l-2 0.7l-0.2 0.1l-0.8-0.2v0.2l0.5 1.6l0.1 0.2q0 0.6-4.3 0.9h-0.8q-4.6 0.2-4.6-0.4v-0.2l0.4-1.5q-0.3-0.1-0.7-0.2q-0.3 0-0.6-0.1q-0.3 0-0.7 0q-0.3-0.1-0.7 0l-0.3-0.3l-0.2 0.1l0.1 0.2l0.8 0.8q-1 0-1.5 2h-0.2l-12.6 0.9q-0.6 0-1.1-0.1q-0.6 0-1.1-0.1q-0.6-0.1-1.2-0.2q-0.5-0.1-1.1-0.2q-0.4 0.2-0.8 0.3q-0.4 0.2-0.9 0.3q-0.4 0.1-0.9 0.1q-0.5 0.1-0.9 0.1l-3.6 0.2l-0.4-0.3l-0.3-6.1q0-0.8 15.7-1.8zm-66 13.2q6.2-0.4 9.9 10.8q6.2 14.8 10.8 23.7q0 0.5-1.1 1.6v0.1l1.3-0.4h0.2q0.5 0 0.7 2q0.4 0.5 0.7 1.1q0.3 0.6 0.5 1.3q0.2 0.6 0.4 1.2q0.1 0.7 0.2 1.4l-0.5 0.3l-1-0.9h-0.2v0.5q1.7 1.1 1.8 1.7q-0.4 0.6-0.8 1.1q-0.5 0.5-1.1 0.9q-0.6 0.3-1.2 0.6q-0.7 0.2-1.4 0.3q-3.8 0.2-7.5-9.3l-0.6-2.1l-0.8 0.2l-12.5 0.4l-5.1 0.3q-1.5 1-3.3 9.2q-1.3 3-3.4 3.2h-0.5q-3.7 0.2-5.3-4l-0.1-0.7q-0.1-2.2 4.9-14.2q5-16.8 7.1-20.6l2.6-0.1q0-0.5-2.5-0.7v-0.2q-0.3-5.6 5.8-8.5l1.8-0.2zm-0.1 10.3h0.2q0.6 2 1.5 1.9l-0.1 0.8v0.5q0.1 1.3 1.8 2.1l0.1 1.8l0.4 1.9q4.1 8.8 4.1 9.5l-13.6 0.7l0.2-0.8q3-8.3 2.9-10.4l-0.1-1.4l-0.2-0.2q1.6-0.7 1.6-1.7v-0.2l-0.2-0.1l-1 0.8l0.3-1q1.3 0 2.1-4.2zm-4 21.4q0.1-0.2 0.3-0.5q0.1-0.2 0.4-0.4q0.2-0.2 0.5-0.3q0.3-0.1 0.6-0.2h0.3q-0.2 0.2-0.4 0.4q-0.1 0.2-0.3 0.4q-0.1 0.3-0.1 0.5q-0.1 0.3-0.1 0.6q-0.2 0-0.3-0.1q-0.2 0-0.3-0.1q-0.2 0-0.3-0.1q-0.1-0.1-0.3-0.2zm34.8 17.4l0.3 0.3l0.4 6.6q0 0.6-9.5 1.1l-23.8 1l-0.2-0.2v-0.3l0.3-0.4l1.2 0.5l0.2-0.2q-0.3-0.8-0.6-0.8h-0.1l-1.8 0.6l-0.7-0.3l0.1 0.5q0.4 0 0.5 0.3v0.2l-2.5 0.4l-1.4 0.1q-0.5 0-0.9-0.1q-0.4 0-0.8-0.1q-0.3-0.1-0.7-0.2q-0.4-0.1-0.8-0.3q-0.4 0.3-0.8 0.5q-0.5 0.1-0.9 0.3q-0.5 0.1-0.9 0.2q-0.5 0-1 0l-9.8 0.4l-1.8 0.4q-0.1-0.2-0.2-0.4q-0.2-0.2-0.2-0.5q-0.1-0.2-0.1-0.5q-0.1-0.3-0.1-0.5l-0.2-5.3l0.3-0.3zm-4.7-57.1l1.3 0.1l-0.1 0.5l0.2 1.1v0.2h-0.3q-0.2-0.1-0.4-0.3q-0.1-0.1-0.4-0.2q-0.2-0.1-0.4-0.1q-0.2-0.1-0.5-0.1h-0.3l-0.1 0.2l-0.1-0.2q1.1-0.8 1.1-1.2zm9.9-2.3q0-0.3 0.8-0.5l2.5 0.2l0.5-0.1v0.4q-0.3 0.2-0.6 0.4q-0.4 0.2-0.8 0.3q-0.3 0.2-0.7 0.3q-0.4 0.1-0.8 0.1h-0.2l0.2-0.5v-0.2l-0.8 0.2zm16.6 1.3q0-0.2 0.6-0.5q0.3 0 0.5 0.1q0.2 0.1 0.4 0.3q0.2 0.1 0.4 0.3q0.1 0.2 0.3 0.4v0.3h-0.7l-1.5-0.6zm-3.9 0.9l1-1l1-0.1l0.1 0.2q0 0.2-0.2 0.4q-0.1 0.2-0.3 0.4q-0.2 0.2-0.4 0.3q-0.2 0.1-0.5 0.1h-0.6zm-14.8 0.6l0.5-0.5h0.3q0.8 0 1 0.4v0.5l-0.1 0.2l-1-0.4h-0.4l-0.1 0.2v-0.2zm16.3 0.8l0.6-0.7l1.1-0.1l1.4 0.3q-0.1 0.2-0.2 0.3q-0.1 0.2-0.2 0.3q-0.2 0.2-0.4 0.2q-0.1 0.1-0.3 0.1l-2-0.3zm-9.1 4.6q1 0 2 0.1q1 0 2 0.2q1 0.2 2 0.5q1 0.2 1.9 0.6h0.2l-0.4-0.8l0.2-0.2h0.1q2.4-0.1 6.9 2.9l0.9 1.1v0.4l-4.3-0.1l-6.8 0.7v0.1l1.5 0.3l0.8-0.2q0.1 1.4 2 1.8l0.2 0.5q0.2-0.1 0.4-0.2q0.2-0.1 0.4-0.2q0.2-0.1 0.4-0.1q0.2 0 0.4-0.1h1.2q0.2 0 0.3 0q0.2 0 0.3 0.1q0.2 0 0.3 0.1q0.1 0.1 0.3 0.2l1.9-1.7q-0.1-0.8 0.2-0.9q2.5-0.1 3.6 5.3q-0.3 4.6-4.2 4.8l-1 0.1v-0.2l0.3-1l-1.6 0.2l-0.2-0.1v-0.2q1.2-2.8 1.5-2.8l0.1-0.1l0.8 1.3h0.1q1 0 1-0.7l-0.3-1.6h0.2l1 0.1l0.6-0.1q0-0.3-1-0.6l-1.4 0.3h-0.2l-0.7-0.5q-0.3 0-0.3 0.5l0.2 0.8l-0.1 0.1q-0.3-0.3-0.6-0.4q-0.2-0.2-0.5-0.3q-0.3-0.1-0.7-0.2q-0.3 0-0.6 0l-1.9 0.4q-0.1-1.9-6-3.4l-1-0.8q-0.1 0.2-0.2 0.3q-0.1 0.1-0.2 0.2q-0.2 0.1-0.4 0.2q-0.1 0-0.3 0l-1 0.1q-0.9 0-1-0.5q0-0.3 0.5-0.3l0.1-0.2v-0.3h-0.3q-0.1 0.1-0.3 0.3q-0.1 0.1-0.3 0.2q-0.2 0.1-0.3 0.1q-0.2 0.1-0.4 0.1h-0.3l-0.4-0.3q0-0.7 2.5-2.4v-0.3l-0.6-0.2q-0.4 0.1-0.6 0.3q-0.3 0.2-0.5 0.4q-0.2 0.3-0.3 0.6q0 0.3 0 0.6h-0.2q-0.9-0.8-1.3-0.7l-0.2 0.1l0.1 1.2l0.3 0.4q-0.2 0.2-0.5 0.4q-0.2 0.2-0.4 0.5q-0.1 0.2-0.3 0.5q-0.1 0.2-0.2 0.5l0.2 1q-0.4 0.5-0.8 1q-0.4 0.5-0.7 1.1q-0.4 0.5-0.7 1.1q-0.2 0.6-0.5 1.2q1.2 0.5 1.2 0.8v0.5q-0.1 0.2-0.3 0.3q-0.2 0.2-0.4 0.4q-0.3 0.1-0.5 0.2q-0.3 0.1-0.5 0.1l0.2 0.8v0.7h0.2l2.8-0.3q3.9 0.1 4 1.3l0.4 1.9l-0.6 0.4q0 0.6 2.8 0.6h0.8v-0.2l-2.4-2.3v-0.2h0.2q5.4-0.3 15.6 4v0.5l-0.3 0.5v0.1h1q2.5-0.2 4.4 5l0.2 1.3l-0.2 1.8l0.7 0.6v0.5q0 0.5-0.8 0.6l0.4 1.9q0.3 5.3-5.1 8.8l-1 0.3h-0.3v0.3q0.5 0 0.5 0.3q-0.1 0.1-0.3 0.3q-0.1 0.1-0.3 0.2q-0.2 0.1-0.4 0.1q-0.2 0.1-0.4 0.1l-0.2-0.1v-0.2q-0.1-2.1 2.2-2.2q0-0.7-2.5-0.7h-0.7l-3.2 0.5v0.2q1.5-0.1 1.6 1.7v1.5l0.2 0.1v0.2q-0.9 0.4-1.9 0.7q-1 0.3-2 0.6q-1 0.2-2 0.4q-1 0.1-2 0.2q-11.2 0.6-16.7-7q-0.2-0.5-0.4-1q-0.2-0.6-0.4-1.1q-0.2-0.5-0.3-1.1q-0.1-0.5-0.2-1q-0.6 0-0.9-1.8q0.9-4.3 4-4.5h1.1q2.3-0.2 6.2 7.4q0.6 0.8 1.5 1.4q0.8 0.6 1.8 1q1 0.4 2 0.6q1 0.1 2.1 0q8.3-0.4 9.2-5.9l0.1-1.3q-0.3-5.3-8.7-6.3l-5.1-1.8q-6-0.6-8.8-2.4q-0.4-0.3-0.9-0.7q-0.4-0.3-0.8-0.7q-0.4-0.4-0.7-0.8q-0.4-0.4-0.7-0.9v-0.3l0.5-0.1v-0.3h-0.2l-1 0.4q-0.4-0.6-0.7-1.3q-0.4-0.7-0.6-1.4q-0.2-0.7-0.3-1.5q-0.1-0.7-0.2-1.4v-1.2q-0.4-7.5 9.2-12q0.7-0.2 1.4-0.4q0.8-0.3 1.5-0.4q0.7-0.2 1.5-0.3q0.7-0.1 1.5-0.2zm2.3 1.2l0.3-0.3h0.2l1.7 0.4v0.3l-0.5 0.2l-1.7-0.3zm2.4 1.1v-0.2q3 0.3 3 0.8l-0.8 0.2l-1.7 0.1l-0.4 0.4l0.2 0.8v0.2h-0.2l-0.2-0.2h-0.1l-1 0.4v-0.3q0.2-0.2 0.4-0.5q0.2-0.2 0.4-0.5q0.1-0.3 0.2-0.6q0.1-0.3 0.2-0.6zm-13.2 1.5q0.3-0.1 0.7 0q0.3 0 0.7 0.1q0.3 0.1 0.6 0.2q0.3 0.2 0.6 0.4l-2.1 1.1h-0.3v-0.2l0.7-0.2l-0.1-0.3q-0.5-0.8-1-0.8v-0.2zm9.4-0.1l0.4-0.2l1.4 0.1q-0.1 0.2-0.3 0.4q-0.1 0.2-0.3 0.3q-0.2 0.1-0.4 0.2q-0.2 0.1-0.5 0.1l-0.6 0.1v-0.2l0.6-0.2l-0.3-0.5zm-7.6 14.9q0.1-0.5 1.2-0.6h0.2q0.5 0.1 0.9 0.2q0.5 0.1 0.9 0.3q0.5 0.1 0.9 0.3q0.4 0.3 0.8 0.5q-0.3 0.4-0.8 0.7q-0.4 0.3-0.9 0.5q-0.4 0.2-0.9 0.3q-0.5 0.2-1.1 0.2q-0.4 0-0.9 0q-0.5 0-0.9-0.2q-0.5-0.1-0.9-0.3q-0.4-0.2-0.8-0.5l0.5-0.5l4.3 0.4l0.3-0.3v-0.5l-0.4-0.5q-0.2 0-0.5 0.1q-0.3 0-0.6 0q-0.2 0.1-0.5 0.2q-0.2 0.1-0.5 0.2v-0.2h-0.3zm11 3.2l0.1-0.6q0-0.6 2.1-1l0.7 0.2v0.3l-0.5 0.5l-1.5 0.1q-0.4 0-0.4 0.7h-0.3zm-2.1 0.6h0.1l0.2-0.2h0.3l2 0.2v0.2q0 0.5-1.3 0.7q-0.2 0-0.4 0q-0.2-0.1-0.4-0.2q-0.2-0.1-0.3-0.3q-0.2-0.2-0.2-0.4zm9.3-0.5l1.1-0.1l0.1 0.2l-0.2 0.2v0.1l0.2 0.2q0.8 0 0.8 0.3l0.2 0.1v0.7l-3.1 0.1v-0.9l1.1-0.4v-0.2l-0.2-0.1zm-11.2 2v-0.1q2.6 0.6 2.7 1v0.5l-2.5 0.1l-1-0.3zm8.1 1.6q0.2-0.2 0.4-0.4q0.1-0.2 0.3-0.4q0.2-0.1 0.5-0.3q0.2-0.1 0.4-0.2l-0.1 0.9v0.6h-0.5zm5.9-1.1l0.3-0.3q0.2 0.1 0.3 0.3q0.2 0.1 0.4 0.2q0.2 0.1 0.4 0.2q0.2 0 0.4 0v0.2l-0.4 0.5h-1v-0.8zm-3.1 0.5l0.3-0.3l1.6 0.1q0 0.2 0 0.4q-0.1 0.3-0.2 0.5q-0.1 0.2-0.3 0.3q-0.2 0.2-0.4 0.3q-0.4 0-1-1.3zm9.8 25.1l7.1-0.5l0.1 0.2l0.4 6.7l-0.3 0.3l-30.3 1.6l-8.5 0.8q-0.5 0-1-0.1q-0.5 0-1-0.1q-0.5-0.1-0.9-0.3q-0.5-0.1-1-0.3q0.1 0.4-1.2 0.7l-3.3 0.2l0.1-1.5q-0.2-0.6-0.3-1.2q0-0.6-0.1-1.2q-0.1-0.6-0.1-1.3q-0.1-0.6-0.1-1.2v-0.5l0.3-0.3zm-8.4 3q0-0.3 0.9-0.7h0.4v0.2q-0.7 0-0.7 0.3v0.2l0.2 0.2l1-0.6h0.3q-0.6 1.2-1.1 1.2h-0.3q0-0.6-0.7-0.6zm4.3-63.8l3.1-0.3q3.5 0.1 3.5 1.1l1.3-1.2l1-0.1l1.3 0.8l-0.3 0.7l0.5-0.1l0.3-0.8q0.4 0 1.7 1.5l4-2.3l1-0.4h0.8q1.8 0.3 1.9 1.2q1-0.4 2.1-0.7q1.1-0.3 2.2-0.6q1.1-0.2 2.2-0.3q1.1-0.1 2.3-0.2h0.5l14.9-0.5h1l3.2-0.3q0.2 0.2 0.3 0.4q0.1 0.2 0.2 0.5q0.1 0.2 0.1 0.5q0 0.2 0 0.5l0.3 5.2l-0.3 0.4l-1.7 0.1q-0.4 0-0.8 0q-0.4-0.1-0.8-0.2q-0.4-0.1-0.7-0.3q-0.4-0.2-0.7-0.5q-0.8 0.3-1.6 0.5q-0.8 0.3-1.6 0.4q-0.9 0.2-1.7 0.3q-0.9 0.1-1.7 0.1h-0.2l-11 0.3l-1.6 0.1l-0.2 0.1h-0.1l-0.1-0.1q3.5-3.3 5.9-3.5q-0.1-0.2-0.2-0.4q-0.2-0.2-0.4-0.4q-0.3-0.1-0.5-0.2q-0.3 0-0.6 0h-0.1l-1.2 0.2l0.1 0.2l0.7 0.8v0.5h-0.8q-0.3 0.1-0.6 0.2q-0.3 0.1-0.6 0.3q-0.2 0.2-0.5 0.3q-0.2 0.2-0.4 0.5h-0.5l-1.2-0.3l0.1 1.7l-0.3 0.3l-1.5 0.1l-0.3-0.3q0.6-0.3 0.6-0.6l-0.2-0.1v-0.2l-1.3 0.4l-0.5-0.3h-0.1q-0.3 0-0.4 1.5l-0.7 0.1l-4-0.3l-0.1 0.1l-0.4-0.4v-0.4q0-0.1 0.1-0.3q0-0.2 0.1-0.4q0.1-0.2 0.2-0.3q0.1-0.2 0.2-0.3h-0.2l-0.9 0.2l-0.4-1.6l0.3-0.3h-0.2l-3.7 0.5v0.2l1.2 1l-0.3 0.4h-0.2q-1.6 0.1-4.6-3.2q-0.2-0.2-0.4-0.3q-0.3-0.1-0.5-0.3q-0.2-0.1-0.5-0.2q-0.2 0-0.5-0.1q-0.3 1-0.6 1h-0.1l-1.8-0.2l-0.2 0.2v0.1l1.2 0.8l-0.5 0.3l-1.2-0.7h-0.3q0 0.2-0.1 0.4q0 0.2-0.1 0.4q0 0.2-0.1 0.4q-0.1 0.1-0.3 0.3l1.8-0.1q0.5 0 0.6 1q0.3 0 0.7-1.5l0.2-0.1l4.3 0.8q0.3 0.3 0.5 0.7q0.3 0.3 0.6 0.7q0.2 0.3 0.4 0.7q0.2 0.4 0.4 0.8l-0.1 0.1l-3.3 0.2v-0.2l0.8-1.1q-0.1-1.2-2.1-1.4q-1.1 0.2-1.1 0.5q2.6 0.5 2.7 1l-0.3 0.4l-2.2 0.1q0.1 0.3 1.4 0.4v0.3l-0.3 0.4l-1.4-0.3l-3.7 0.4q-0.7-0.2-0.7-0.5l-0.1-1.6l0.1-1.2l-0.2-1.4l-0.1-2.3l0.3-0.4zm7.4 0.5l0.5-0.2l1.8 0.7q0.1 1.1 1.1 1.1v0.2q-0.2 0-0.4 0.1q-0.1 0-0.3 0.1q-0.1 0.1-0.2 0.2q-0.1 0.1-0.2 0.3h-0.4v-0.2q-1.9-1.6-1.9-2.3zm9.7 0l0.8-0.6h0.3l1 0.9l-1.4 0.8l-0.7-1zm-0.6 0.9l1.1 0.2l0.1 0.2l-0.5 0.2q0 0.3 0.5 0.3v0.3l-0.7 0.1q-0.1-0.1-0.2-0.2q-0.2 0-0.3-0.1q-0.1-0.1-0.2-0.3q-0.1-0.1-0.1-0.2zm25.2-3.2q0.3 0.3 0.6 0.4q0.2 0.2 0.5 0.4q0.3 0.2 0.6 0.3h0.9l-0.1-0.2l-0.3-1l0.1-0.1h0.2q1.1 0.1 1.2 0.4l1.2-0.6h1.2q1.5 0.2 1.5 0.7q1.1-0.3 2.1-0.6q1.1-0.3 2.2-0.4q1.1-0.2 2.2-0.3q1-0.1 2.1-0.1l3.6-0.2l8.6-0.3v0.2q0 0.4-2.6 0.8l0.5 0.6h0.2l1.9-0.6l0.2 0.1v0.2q-0.1 0.6-0.9 1l-1.5 0.1l-0.2-0.1h-0.1v0.3l0.3 0.6l-0.2 0.7h0.3q0.1-0.2 0.3-0.3q0.2-0.1 0.3-0.2q0.2-0.1 0.4-0.1q0.2-0.1 0.4-0.1l1-0.1l1.4-2.4q-0.1-0.8 0.2-0.8l4.5-0.4l8.8-0.3l2.5-0.1l4.6-0.1l2.6-0.3l0.1 0.1l0.4 6.8l-0.3 0.3l-8.5 0.5v-0.2l0.3-0.5l-0.6-0.5l0.2-0.5h-0.2q-0.3 0.1-0.7 0.3q-0.3 0.2-0.6 0.4q-0.3 0.2-0.6 0.5q-0.3 0.3-0.5 0.6l-33.2 1.7q-0.3 0.1-0.7-0.9l0.2-1.3l-0.1-0.5l0.1-0.2h0.2l1.2 0.8l-0.1-0.4l-1.5-1.7l-0.2 0.2h-1l-1.1-0.1v0.3l0.3 0.4l1.8-0.1l0.1 0.3l-2 0.6q-0.4 0-0.9-0.1q-0.4 0-0.9-0.2q-0.4-0.1-0.9-0.3q-0.4-0.1-0.8-0.4q-0.1 0.1-0.2 0.1q-0.1 0.1-0.2 0.2q-0.1 0.1-0.1 0.2q-0.1 0.1-0.1 0.2l0.9 1.9l3.1-0.6h0.3l0.4 0.3q-0.3 0.3-0.7 0.5q-0.3 0.3-0.7 0.5q-0.4 0.1-0.8 0.2q-0.4 0.1-0.9 0.1l-1.4 0.1q-5.8 0.3-5.9-1.5l0.1-2.5q0.5 0 0.4-0.7l0.3-0.3l1.4 0.2l-0.7-0.8v-0.1l0.3-0.5h-1.2q-0.3 0-0.3 0.5h-0.2l-0.3-0.3q0-0.6 3.2-1.1q0.3 0.2 0.5 0.4zm-23.3 4.7q0.1-0.2 0.2-0.4q0.1-0.2 0.3-0.3q0.2-0.2 0.4-0.2q0.3-0.1 0.5-0.1l0.3-0.1q-0.1 0.2-0.2 0.5q-0.2 0.2-0.3 0.4q-0.1 0.2-0.1 0.5q-0.1 0.2-0.1 0.5h-0.2q0-0.7-0.8-0.6zm-5.3 2.1l0.5 0.4v0.5l-0.3 0.4h-0.3l-1.4-0.8q0.1-0.1 0.3-0.2q0.1-0.1 0.2-0.1q0.2-0.1 0.3-0.2q0.2 0 0.3 0zm21.9 3.8q5.4-0.1 6.3 1.4v0.2l-0.3 0.4l-0.8-0.5h-0.3v0.4q0.5 2.6 2.1 2.5v0.1q-0.5 3-5.1 3.3l-6.6 0.1v-0.3q0.1 0 0.2 0q0 0 0.1 0q0.1-0.1 0.1-0.1q0.1 0 0.1-0.1q0.1 0 0.1-0.1q0 0 0-0.1q0.1-0.1 0.1-0.1q0-0.1-0.1-0.2h-0.1q-0.4 0.3-0.8 0.5q-0.5 0.2-0.9 0.4q-0.5 0.1-0.9 0.2q-0.5 0.1-1 0.1h-0.3l-7.6-0.1q-2.7 0.2-2.7 1.3l0.6 3.9q0 1.5-1.3 1.6q0.3 0.3 0.5 0.7q0.2 0.4 0.3 0.8q0.2 0.4 0.2 0.8q0.1 0.5 0.2 0.9q-0.1 0.6-0.2 1.2q-0.1 0.6-0.3 1.1q-0.2 0.6-0.4 1.1q-0.3 0.6-0.5 1.1h0.1q1.1-0.1 1.9-2.7l0.1-0.2l1-0.1q0.6 0.1 1.2 0.1q0.6 0.1 1.2 0.2q0.6 0.1 1.2 0.2q0.6 0.1 1.2 0.3l1.5-0.4v0.1l-0.2 0.5l1.9 1.3v0.3l-0.1 0.2v0.1l0.1 0.2h0.4q0.2-0.1 0.7-1.4h0.3v-0.2q-0.3-0.1-0.6-0.1q-0.3-0.1-0.6-0.2q-0.3 0-0.6 0q-0.3 0-0.7 0v-0.4q0.9-0.3 1.9-0.6q0.9-0.3 1.9-0.5q0.9-0.2 1.9-0.4q1-0.1 2-0.2q5-0.2 7.1 1.9q0.2 0.2 0.3 0.4q0.2 0.2 0.3 0.5q0 0.2 0.1 0.4q0.1 0.3 0.1 0.5v0.2q0.2 3.3-4.1 3.5l-1.8 0.1l-0.3-0.3l-0.1-0.2q0-0.9 1.4-2.4h-0.3q-2.1 0.6-2.1 1.8l0.2 1l0.1 0.1l-3.5-0.1l-9.7 0.8l-3.1 0.2l-0.3 0.3l0.1 1.5l-0.6 0.7l-1.2-0.9h-0.5q-0.2 0.1-0.3 0.3q-0.2 0.2-0.3 0.4q0 0.2-0.1 0.4q0 0.2-0.1 0.4l0.4 0.3v0.2q-0.5 0.2-1.1 0.4q-0.5 0.2-1 0.3q-0.6 0.2-1.2 0.3q-0.5 0.1-1.1 0.2l-2.3-0.2v-0.2l0.2-1.8l-0.6-2.4v-1l0.1-0.2v-0.1l1.2 0.1l0.3-0.1q0.7 0 1.5-3.2l1-0.2l1.8 0.6q0.1-0.2 0.2-0.3q0.1-0.2 0.2-0.4q0.1-0.2 0.1-0.4q0.1-0.2 0.1-0.4l-0.1-0.5q0-1.6-2-2.2h-0.2v0.2q0.2 0 0.3 0q0.2 0.1 0.3 0.1q0.1 0.1 0.2 0.2q0.1 0.1 0.2 0.3q0 0.3-0.9 0.4v0.1l0.8 0.8v0.1q-1.1 0.1-3.9 3.9h-0.1l-1.2-0.5l0.1-1.9l-0.3-4.1l-0.6-9.2q0-0.5 1.6-1.4l-0.1-0.5l-1.5-1.1l0.3-0.3h0.7l1.8 0.5l0.6-0.3q0-0.4-1-1l-0.2 0.2l-1.4 0.1q-0.4 0-0.6-0.6q1.3-3.4 5.4-3.6l2.2-0.1q0.7 0 1.4 0q0.8 0 1.5 0.1q0.7 0 1.4 0.1q0.7 0.1 1.5 0.3q0.3-0.2 0.7-0.4q0.4-0.2 0.8-0.3q0.4-0.1 0.8-0.2q0.5-0.1 0.9-0.1q0.4 0 0.7 0.1q0.4 0 0.7 0.1q0.4 0.1 0.7 0.2q0.4 0.1 0.7 0.3q1-0.1 1-0.7h0.3q0.1 0.2 0.2 0.5q0.2 0.2 0.4 0.3q0.3 0.2 0.5 0.3q0.3 0.1 0.6 0.1h0.5l0.3-0.4l-0.8-0.4l-0.1-0.4q0.7-0.1 1.4-0.2q0.6-0.2 1.3-0.3q0.7-0.1 1.4-0.1q0.6-0.1 1.3-0.1zm-25.9 3.1q0.2-0.2 0.4-0.4q0.2-0.2 0.5-0.3q0.3-0.1 0.6-0.2q0.3 0 0.6 0l2.9 0.5v0.1l-0.8 0.2l-4.1 0.1zm17.7-1.3l2.2 0.6v0.2l-0.3 0.3l-2.2-0.4v-0.2zm-4.9 2.8l0.8-0.2l0.9-0.1q0.5 0 0.6 0.8h0.3v-0.3h0.2v0.1q-0.2 0.3-0.4 0.4q-0.2 0.2-0.5 0.4q-0.2 0.1-0.5 0.2q-0.3 0.1-0.5 0.1q-0.3-1.3-0.9-1.3zm-11.5 3.8l1 0.1h0.1l0.2-0.2l0.2 1.5q-1.5-0.4-1.5-0.8zm3.2 16.1q0.9 0 3.5-2l0.8 0.5q0 0.3-1.3 0.5q0 0.2 0.1 0.4q0 0.2 0.1 0.3q0.1 0.2 0.3 0.3q0.1 0.1 0.3 0.2l1.3-0.1v0.3q-0.1 0.3-0.8 0.7l-1.8-0.1l-0.2 0.1l-0.1 0.1l0.3 0.8l0.1 0.2l-1.7-0.2v0.1l-0.1 0.2v0.8l-1.2-0.4l0.1-2.5v-0.2zm14-1.3l0.5-0.2l2.2 1h0.1q0.1 1.1-1.5 1.5l-0.2 0.1v-0.2l0.3-1.5q-0.3-0.6-1.4-0.6zm-11.6 1.3v0.6q-0.1 0.5-0.9 0.6h-1.3v-0.3q0.1-0.2 0.4-0.4q0.2-0.2 0.5-0.4q0.2-0.1 0.5-0.2q0.3-0.1 0.6-0.1zm1.7 6.2l0.3 0.3l0.2 3.3q0.2 3.5-0.8 4.3q0.2 0.4 0.4 0.8q0.2 0.3 0.6 0.6q0.3 0.2 0.8 0.3q0.4 0.1 0.8 0.1q0.8-0.1 1.7-0.1q0.8 0 1.6 0.1q0.9 0 1.7 0.2q0.8 0.1 1.6 0.3q0.2-0.7 1.4-0.7l0.7-0.1l2.6 0.2v-0.1l0.5-0.7l4.9-0.3q6.6-0.3 8.3 2.4l0.2 0.8q0.3 4.6-5.9 4.9l-2.3 0.1q-1.2 0.1-2.4 0q-1.2 0-2.3 0q-1.2-0.1-2.4-0.2q-1.2-0.1-2.3-0.3q-0.8 0.3-1.7 0.5q-0.8 0.2-1.6 0.3q-0.9 0.2-1.7 0.3q-0.9 0.1-1.7 0.1l-3 0.1q-8 0.5-8.1-2.3q-0.2-0.6-0.4-1.3q-0.1-0.6-0.2-1.2q-0.1-0.6-0.2-1.3q-0.1-0.6-0.2-1.3l-0.1-2.1q0-0.6 0-1.1q0.1-0.6 0.1-1.2q0.1-0.5 0.2-1.1q0.2-0.5 0.3-1.1l-0.8-0.7l-0.1-0.9l0.2-0.1v-0.2q0.2 0.1 0.5 0.1q0.3 0.1 0.5 0.1q0.3 0.1 0.6 0.1q0.2 0 0.5-0.1l1.7-0.1q3.4-0.1 4.5-1.7zm-6 8.7q-0.1-2.8 2.5-2.9q-0.5 2.8-2.3 2.9zm5.8 3.8l0.4-0.2l1.4 0.3q-1.4 2.5-1.9 2.5l-0.1-0.1l0.6-0.9l-0.1-1l-0.3-0.4zm18.3 1.5l0.8-0.2l0.6-0.1l0.1 1.2l0.4 0.5v0.1l-0.5 0.1q-0.2-0.2-0.4-0.4q-0.2-0.2-0.4-0.3q-0.2-0.2-0.3-0.5q-0.2-0.2-0.3-0.4zm15 4.9q0.3 0.1 0.6 0.2q0.3 0.2 0.5 0.4q0.3 0.2 0.5 0.5l-0.3 1.3l0.7 4.1v0.5l-0.3 0.5q-9.8 0.4-9.9-0.5l0.7-0.5h1.3q-0.1-0.9 0.3-0.9l1 0.8h0.5l0.4-0.7l0.2-0.2h0.2q1.2 1.4 2 1.4l0.5-0.2v-0.5q-1.5 0.1-1.6-1.2l-1.6 0.2l-5.2 0.3l-0.9-0.1v-0.4l1-0.2v-0.1q-0.1-0.5-1.2-0.8q-1.1 2.4-1.9 2.6l0.1 0.1l0.3 0.7q0 0.1-0.1 0.3q-0.1 0.2-0.3 0.3q-0.1 0.1-0.3 0.2q-0.2 0-0.4 0l-0.3 0.1l-2.7-0.2h-1.3l-0.1 0.2h-0.2l-0.2-0.1v-0.2q0-0.4 1.8-0.9v-0.3h-0.2q-0.4 0-0.8 0.1q-0.3 0.1-0.7 0.3q-0.3 0.3-0.6 0.5q-0.2 0.3-0.4 0.7h-0.2l-20.8 1.2h-8.1v-0.4q0.5-0.3 1.1-0.5q0.5-0.2 1-0.4q0.6-0.2 1.2-0.3q0.5-0.1 1.1-0.1l0.8-0.1q0.6 0 1.1 0q0.6 0.1 1.2 0.1q0.5 0.1 1.1 0.1q0.5 0.1 1.1 0.2q-0.4-0.3-0.9-0.6q-0.4-0.3-0.9-0.4q-0.5-0.2-1-0.3q-0.6 0-1.1 0.1h-0.5q-0.5 0.1-1.1 0.2q-0.5 0.1-1.1 0.3q-0.5 0.1-1.1 0.3q-0.5 0.2-1 0.4q-1.2-0.4-1.2-0.6l-0.3-4.6l0.4-0.3l7.3-0.4l0.4 0.3h-0.2q0.5 1.1 0.7 1.1h0.3q3.2-0.2 3.1-1.6l0.3-0.1l1.4 1.1h0.1q1.1-1.2 3.9-1.3h2.2l1.4-0.2l0.2 0.1v0.4l-0.3 0.5v0.1q0.2 0 0.4 0q0.1 0 0.3 0.1q0.2 0 0.3 0q0.2 0.1 0.3 0.2l0.5-0.2v-0.3h-0.5v-0.3q1.1-0.2 2.2-0.4q1.2-0.2 2.3-0.3q1.1-0.2 2.2-0.3q1.2-0.1 2.3-0.2l12.1-0.3l0.1 0.7q-1 0.2-1 0.5h0.2q0.5-0.3 1.1-0.6q0.6-0.3 1.3-0.6q0.6-0.2 1.2-0.4q0.7-0.2 1.4-0.3q0.3 0 0.6 0.1zm-36.9 3.6l1.4-0.4h0.2l0.2 0.2l-0.8 0.7l0.6 1.4v0.2q-1.9-1-1.9-2.1zm16.5 1.3q-0.1-0.4 0.9-0.5q0.2-1 0.4-1l0.4-0.1q1.6 0.1 1.7 0.9v0.2l-1.7 0.1l-1.7 0.6zm-13.1 2.5q0-0.6 1.8-0.9l0.3-0.1l0.5 0.5l0.1 0.3zm3.1 0.2q0-0.2 0.1-0.3q0.1-0.1 0.2-0.2q0.2-0.1 0.3-0.2q0.2 0 0.3 0l1.4-0.1v0.2q-0.1 0.5-1 0.5zm16.4-0.3l0.5-0.2h0.3l-0.4 0.5zm6.5-63.6q-0.1-1.5 1.7-1.9q0.3 0 0.5 0.8q0 0.4-2.1 1.1zm7.2-3.2l1.2-0.1l0.1 1.8q-1.2 0.1-1.3-1.5zm14-0.4l1.8-0.1q0 1.1 0.9 1.1q0 0.6-2.1 0.9q-0.3 0-0.6-1.9zm-9.9 2.5q0-0.6 1.7-1h0.2v0.5l-0.3 0.5l-0.6-0.1l-0.8 0.2zm21.4-1.9l1-0.1l-0.3 1.2q0 0.5 1 0.4q0 0.5-1.6 0.8q-0.2 0-0.4 0q-0.1-0.1-0.3-0.1q-0.1-0.1-0.3-0.2q-0.1-0.2-0.2-0.3v-0.4l0.5 0.3h0.2l0.4-0.5zm-30.1 2.3l1.3-0.6h0.2v0.3q-0.1 0-0.1 0q-0.1 0-0.2 0q0 0.1-0.1 0.1q0 0.1-0.1 0.1q0 0.1-0.1 0.1q0 0.1 0 0.1q0 0.1 0 0.2q0 0 0 0.1h-0.5l-0.4-0.3zm9.3 0.4l0.4-0.1l0.9 0.8h0.2l0.1-0.2l0.2 0.5l-0.5 0.4h-0.1l-1.2-0.1zm-14.8 1.7l2.3 1.1v0.1h-0.3q-2-0.4-2-1zm11.5 0.4l1.1-0.4l2.5-0.1q0 0.4-1.8 0.5l-1.6 0.1l-0.2 0.2zm17.4 3q1.7-0.1 3.4 0q1.7 0.2 3.4 0.6q1.7 0.5 3.2 1.2q1.6 0.7 3 1.6l-0.5 2.4v0.1h0.5q0.3 0 0.5-1.7q3.3 1.6 3.3 3.2v0.1l-0.4 0.7l1.7 0.6l-0.4 1.6q1.9 2.1 1.9 2.9v0.6q0.2 2.3-4.4 3.2l-1.3 0.1q-0.3 0-0.6 0q-0.4-0.1-0.6-0.2q-0.3-0.1-0.6-0.4q-0.2-0.2-0.4-0.4v-0.7l0.1-0.8q-2.6-1.6-2.7-3.5v-0.8l0.2-0.2l-0.1-0.1q-0.5 0-1 0q-0.6-0.1-1.1-0.3q-0.5-0.2-0.9-0.5q-0.5-0.3-0.8-0.7q-0.4-0.2-0.8-0.4q-0.5-0.2-0.9-0.3q-0.4-0.1-0.9-0.2q-0.4 0-0.9-0.1l-0.8 0.1l-0.4-0.3v-0.8q-0.2 0-0.4 0.1q-0.2 0.1-0.4 0.2q-0.2 0.1-0.4 0.2q-0.1 0.2-0.2 0.4h-0.5l-0.2-0.2h-0.2l0.1-1.1v-0.2l-0.5-0.4h-0.5l-0.3 0.3l0.6 1.6l-0.3 0.4h-0.5q-0.4 0-1.3-1.9v-0.2l0.2-0.1v-0.2h-0.4l-0.1 0.2h-0.2l0.4 1.1q0.1 2.3-1.8 2.4q-1.6 1.9-2.6 2h-0.8v0.2q0.1 1.6-2.4 7.8q-0.1 0.4-0.1 0.7q-0.1 0.4-0.1 0.7q-0.1 0.4-0.1 0.7q0 0.4 0 0.7l0.1 1.3q-0.2 0-0.4 0.1q-0.1 0-0.3 0.1q-0.1 0.1-0.2 0.2q-0.2 0.1-0.3 0.2h-0.4l-0.2-0.1h-0.2v0.1q0 0.4 1.7 0.8q0.2 0.3 0.3 0.6q0.1 0.4 0.2 0.7q0.1 0.4 0.2 0.7q0.1 0.4 0.1 0.7v0.4q0.1 0.4-0.9 0.5q0 0.3 0.8 0.3l0.2 0.1v0.2l-0.3 0.8l0.4 0.8l-0.2 0.2l-1.8 0.1l-0.3 1l0.1 0.2h0.1q0.3-0.1 0.5-0.2q0.3-0.1 0.5-0.3q0.2-0.1 0.4-0.3q0.2-0.1 0.4-0.3l0.6-0.1l-0.1 1.2l1.7 2.9v0.5q-0.1 0.1-0.2 0.3q-0.1 0.1-0.3 0.2q-0.1 0.1-0.3 0.2q-0.2 0-0.3 0q0.1 0.2 0.2 0.4q0.2 0.2 0.4 0.3q0.2 0.1 0.4 0.2q0.3 0 0.5 0h0.3l0.8-0.2q0.3 1.1 3.8 3l0.5 1l1.3-0.6l1.4 0.1v0.2q0 0.3-1.3 0.4l0.3 0.3l1.5-0.1l0.3 0.3q0.5-0.3 1-0.6q0.5-0.2 1.1-0.4q0.6-0.2 1.1-0.3q0.6 0 1.2 0q3.9-0.1 4 0.4q-1.5 0.5-1.5 1.2l-0.3 0.4l-0.8-0.3h-0.2v0.2l1.9 0.4l3.7-1.4h0.1v-0.2q0-0.6-4.8-1v-0.3q0-0.4 1.6-1.1l0.4-0.5q0.2 0.1 0.3 0.2q0.1 0.1 0.1 0.3q0.1 0.1 0.1 0.3q0.1 0.1 0.1 0.3l0.3-0.4l-0.2-1.1l0.6-0.2v-0.8l2.3-3.1l1 0.1q0.1-0.2 0.3-0.3q0.2-0.2 0.4-0.4q0.2-0.1 0.4-0.2q0.2-0.1 0.5-0.1l0.8-0.1v-0.5q0.1-0.5 0.2-1q0.2-0.5 0.4-1q0.1-0.5 0.4-1q0.2-0.5 0.4-1v-0.3q0.7 0.1 1.4 0.4q0.7 0.4 1.2 1q0.5 0.6 0.8 1.3q0.3 0.7 0.3 1.5v0.2q0.1 3.3-2.6 8.2h-0.1q-1.4-0.4-1.4-0.6v-0.2q0-0.3 1.3-0.5v-0.2q-0.5 0-3.6-1.9l-1-0.2l0.2 0.2v0.5l-2.7 0.1q0 1.2 1.7 1.3l2.2-0.5h0.4q1.3 0 1.3 1.1l-0.6 0.3l-1.4-0.7h-0.3l-0.3 0.3v0.2l2.3 0.5l0.1 0.4l-3.1 1.6l-1.1 0.1q0.1 0.1 0.2 0.2q0.1 0.1 0.2 0.3q0 0.1 0.1 0.3q0 0.1 0 0.3h0.2l2-0.3v0.3l-0.5 0.6h-1.5l-0.8 0.2v0.4l0.8-0.2h0.2v0.3q-0.3 0.5-0.8 0.9q-0.5 0.5-1 0.8q-0.5 0.3-1.1 0.6q-0.6 0.2-1.2 0.4h-1l-1.5-0.2q-0.3 0.3-0.7 0.5q-0.3 0.3-0.8 0.4q-0.4 0.2-0.8 0.3q-0.4 0.1-0.9 0.1l-2.1 0.1q-1.4 0-2.8-0.1q-1.4-0.1-2.7-0.4q-1.4-0.3-2.7-0.6q-1.3-0.4-2.6-1v-0.3l0.3-0.3l1 0.2v-0.3q-4.8 0.3-9.3-7.6q-0.6-1-1-2.1q-0.5-1.1-0.8-2.2q-0.4-1.2-0.6-2.4q-0.1-1.1-0.2-2.3l-0.1-1q-0.8 0-0.9-1.8q-0.2-4.4 2.6-14.1q2-5.1 5-6.6q1-0.1 2.4-1.8q1.1-0.8 2.3-1.5q1.2-0.6 2.5-1.1q1.3-0.4 2.7-0.6q1.3-0.3 2.7-0.3zm-3.8 3.8l1.2 0.3q-0.1 0.5-1.1 1zm-12.3 7.1l0.8-0.2h0.2l1.2 0.7h0.8l0.2-0.2q0 0.6-1.6 1.1q-1.5 0.1-1.6-1.2zm30-1.5l1-0.3h0.2l0.1 0.1q0.6 1.6 1.6 1.6l-0.6 0.5l-1-0.1h-0.7l-0.6-1.6zm-4.2 1.5l1.2-0.3q1.1 0.3 1.1 0.6l0.1 0.6q-1.2 0.2-1.1 0.7h-0.2l-0.2-0.1l0.2-0.5v-0.2l-0.9-0.6zm5.2 1.2q0.1 0.1 0.2 0.2q0.2 0.1 0.3 0.1q0.2 0.1 0.3 0.1q0.2 0 0.3 0h0.4l1.6-0.6v1.2l-1.6 0.2q-0.2 0.1-0.4 0q-0.3 0-0.5-0.1q-0.2 0-0.4-0.2q-0.2-0.1-0.4-0.2zm-34.6 4.2q0-1 1.8-1.5v0.1h0.3v0.8l1.6 1.3q0 0.6 1.8 0.5v0.2q-1.9 0.8-1.8 2.2l-3.1 0.2l-0.1-0.2l0.8-1.3l-0.4-0.7v-0.1q1.5-0.5 1.5-0.9v-0.2l-0.4-0.3q-0.2 0-0.4 0.1q-0.1 0.1-0.3 0.2q-0.2 0-0.3 0.2q-0.1 0.1-0.3 0.2l-0.3 0.1zm4.3 4.3q0-1 1.3-1.5v0.1h0.3v0.2q-0.2 0.1-0.3 0.3q-0.2 0.1-0.3 0.3q-0.1 0.2-0.1 0.5q0 0.2 0 0.4l-0.9-0.1zm-2.9 0.8h0.4q0.3 0 0.6 0.1q0.3 0.1 0.5 0.2q0.3 0.2 0.6 0.3q0.2 0.2 0.5 0.4l-0.5 0.2q-0.1-0.2-0.2-0.3q-0.2-0.1-0.3-0.2q-0.2-0.1-0.4-0.1q-0.1 0-0.3 0h-0.3l-0.2 0.2zm-1 3.7q0-0.6 3.8-1.2l-0.3 1.3l-0.8-0.3l-3.3 0.5q-0.5 0.1-0.5-0.3v-0.1l0.3-0.1zm-1 2.2q0-0.3 0.5-0.3l0.1-0.2q2-0.1 2.3-0.4v0.3q-0.2 0.1-0.4 0.3q-0.3 0.1-0.5 0.2q-0.3 0.1-0.5 0.1q-0.3 0.1-0.5 0.1l-0.2 0.1zm1.5 3.8l0.7-0.5q2.9-0.2 4.5 2.9h-0.1q-0.3-0.1-0.5-0.1q-0.3-0.1-0.5-0.2q-0.2-0.1-0.5-0.3q-0.2-0.1-0.4-0.3q-0.2 0.3-0.4 0.5q-0.3 0.3-0.6 0.5q-0.3 0.2-0.7 0.3q-0.3 0.1-0.7 0.1l-0.8-0.7v-0.2l1 0.4h0.2l0.3-0.3l-0.1-0.3q-1.3-1.1-1.4-1.8zm32-1.3l1 0.6v0.1l-1.4 0.4l-0.2 0.1l-0.5-0.5v-0.2l0.4-0.5zm-32.3 4.2l0.7 0.1q0 0.3-0.8 0.5v-0.5zm2.3 0.7h0.3l1.1 0.5v0.1l-0.2 0.2v0.5q0.1 0.5 2.5 0.3v0.2q-0.5 0.1-0.9 0.3q-0.5 0.1-1 0.3q-0.5 0.2-0.9 0.4q-0.5 0.2-0.9 0.5h-0.1l0.3-0.5l-0.9-0.8v-0.3q1 0 0.9-0.4v-0.1zm8.2 4.3q0.6 0 1.2 2.2l2.3-0.2l1.2 0.1v0.1l-1.2 0.4l-3.8-0.3h-0.1v-0.1zm8.5 3.5l0.5-0.1q0.3 0.3 0.6 0.5q0.3 0.2 0.6 0.3q0.3 0.2 0.6 0.3q0.4 0.1 0.7 0.1q-0.8 1.9-1.7 1.9q0-0.4-0.1-0.7q-0.1-0.4-0.3-0.7q-0.2-0.4-0.4-0.7q-0.2-0.3-0.5-0.6zm5.4 2q0-1.1 1.7-1.6h0.2q0.1 1.2-1.6 1.8h-0.1zm-1.8 0.7l1.7 0.1l0.6-0.2h0.2q0 0.1-0.1 0.2q-0.1 0.1-0.1 0.2q-0.1 0.1-0.2 0.2q-0.1 0-0.2 0.1l-1.9-0.1h-0.1v-0.3zm4.3 5l5.6-0.6h0.1q0.5 0 0.9 0q0.5 0.1 0.9 0.2q0.4 0.1 0.8 0.3q0.4 0.2 0.8 0.5q0.1-0.3 0.3-0.5q0.2-0.2 0.5-0.4q0.2-0.1 0.5-0.2q0.3 0 0.6 0l0.5-0.1q0.6 0 1.1 0.1q0.6 0 1.1 0.1q0.6 0.2 1.1 0.4q0.5 0.2 1 0.5q-0.1-1.4 1.6-1.5l0.1 0.1l0.1 0.2l-0.2 1q1.4 0.3 1.4 0.6l-0.2 0.1l-0.5 0.1l-1.1-0.1l-0.2 0.1v0.2q0.1 0.4 3 0.7l0.2 0.1v-0.1l-0.7-1l0.4-1.2h-0.1l-1.3 0.4l-0.2-0.1v-0.5q-0.1-0.4 0.6-0.5l2.3 0.2h0.3l0.3 1.4l-0.4 1.4q0.4-0.1 0.5 1.7q0 2.2-0.5 2.2h-0.5l-5.5 0.8l-1.3 0.1q-0.4 0-0.7-0.1q-0.3 0-0.6-0.1q-0.3-0.1-0.6-0.3q-0.3-0.2-0.5-0.4q0 0.5-0.6 0.9h-0.8l-1.4-0.4l-0.4 0.5h-0.4l-4.1-0.1l-36.2 2.4l-2.7 0.1q-0.2 0-0.3-0.1q-0.2-0.1-0.3-0.3q-0.1-0.1-0.1-0.3q-0.1-0.2 0-0.4l-0.1-0.5q0-0.6 0.1-1.3q0-0.7 0.1-1.4q0.1-0.7 0.2-1.4q0.2-0.6 0.3-1.3l-0.1-0.2l-0.1-0.3q0.5 0.2 1.1 0.3q0.5 0.1 1 0.2q0.5 0.1 1 0.2q0.6 0 1.1 0.1l7.8-1.4q0.4 0 0.8 0q0.4 0 0.8 0.1q0.4 0.2 0.8 0.3q0.4 0.2 0.8 0.4q-0.1-0.7 17.1-1.9l0.7-0.2zm-13.8 3.5q-0.1-1.1 1.4-1.5l0.4 0.9q-0.1 0.2-0.3 0.2q-0.1 0.1-0.2 0.2q-0.2 0.1-0.3 0.1q-0.2 0.1-0.4 0.1zm18.1-0.5l1.5 0.5v0.1q-0.1 0.3-0.3 0.6q-0.3 0.2-0.5 0.4q-0.3 0.2-0.6 0.3q-0.3 0.1-0.7 0.1v-0.3l0.8-1l-0.4-0.3v-0.2zm20.9-4.5l0.3 0.3l-2.4 3.2l1.9 0.4l0.1 0.3l-0.1 1.4l0.8-0.2l0.2 0.1v0.2q-0.2 0.2-0.4 0.4q-0.2 0.1-0.5 0.3q-0.2 0.1-0.5 0.1q-0.3 0.1-0.6 0.1v-0.5q-0.5 0.4-1.1 0.6q-0.5 0.3-1.1 0.5q-0.6 0.3-1.2 0.4q-0.6 0.2-1.3 0.2q-0.4 0-0.8 0q-0.4-0.1-0.8-0.2q-0.4-0.1-0.8-0.3q-0.4-0.2-0.7-0.4h-0.2q0 0.7-1.6 1l-5.9 0.2l-0.6 0.2l-0.2-0.2v-0.2l0.1-0.9l-0.6-5.1v-0.5l0.3-0.3l10-0.6v0.4q-1.6 0.3-1.6 0.7v0.2q0.9-0.4 1.8-0.6q0.9-0.3 1.8-0.5q0.9-0.2 1.8-0.4q1-0.1 1.9-0.2zm-35.6 7.1v-0.2l2.6 0.4h0.3q0.2 0 0.4-0.1q0.2 0 0.4-0.1q0.2-0.1 0.4-0.2q0.1-0.1 0.3-0.2v0.7q-2.8 0.4-2.7 0.9q-1.1 0.1-1.7-1.2zm38-67.9l8.7-0.4l-0.4 2q0.6-0.1 2-2.1l11.7-0.8q2.6 0.1 2.6 0.7q0.3-0.2 0.6-0.4q0.3-0.2 0.6-0.3q0.4-0.2 0.7-0.3q0.3-0.1 0.7-0.1l1.1-0.1q2.7-0.1 4 4.2l0.1 1.2q0.1 1.8-0.7 1.8l-3.1 0.4l-0.6-0.8q-1.3 0.2-2.6 0.4q-1.3 0.2-2.6 0.4q-1.3 0.2-2.6 0.3q-1.3 0.1-2.6 0.2l-24.6 1.2l-1.5 0.2q-0.7-1.3-1-1.3q-0.3 1.2-2.7 1.5l-10.9 0.4l-0.2-3.8l1 0.1l1.7-0.4v-0.1l-0.7-0.7l-1.8 0.6q-0.1-0.3-0.2-0.6q-0.1-0.3-0.1-0.7q-0.1-0.3-0.1-0.6q-0.1-0.3-0.1-0.7l0.2-0.1l0.5-0.1q0.3 0 0.5 1.3l0.2 0.2l0.3-0.1l0.3-1.6zm13.8 3.5q0.1-1 0.4-1q1 1.1 1.7 1.1l0.1 0.3l-0.2 0.2q-0.3 0-0.5-0.1q-0.3 0-0.5-0.1q-0.3 0-0.5-0.1q-0.3-0.1-0.5-0.3zm-4.1 0.7l1.9 0.6l1.3-0.2l0.3 0.9l-0.3 0.4h-0.1q-0.1-1-0.4-1l-1.8 0.4l-0.8 0.1zm9.1 7.4q5.6 3.7 5.9 8.7v1.2q0.2 1.4-0.1 2.8q-0.2 1.4-0.7 2.7q-0.6 1.3-1.5 2.4q-0.8 1.1-1.9 2q-0.2 0.8-0.5 0.8h-0.1l-1.3-1.4q-1.2 3.6-2.7 3.6l-0.6-0.6h-0.3q-0.3 0-0.6 1.4q7.7 6.1 9.6 10.5l0.2 0.4v0.5l-0.9 1.1q0 0.4 2.3 0.7l0.4 0.4v0.5l-0.5 0.1v0.1q0.4 0.3 0.7 0.7q0.3 0.4 0.5 0.8q0.2 0.4 0.4 0.8q0.2 0.5 0.2 0.9l0.1 0.2q0 1.2-2.7 1.8l-1.8 0.9l-0.4-1.1h-0.8l-1.1 1.5q-1.3-0.5-1.3-0.7l0.3-0.5q-2.2-1.1-2.3-2l0.2-0.7q-0.5-0.1-1-0.3q-0.5-0.3-0.8-0.7q-0.3-0.4-0.5-0.8q-0.2-0.5-0.2-1v-0.4q-0.1-1.1 1.5-2h-0.5l-2.1 0.8q0-0.5-4.5-6l-0.1-0.4l0.2-0.1h0.2l0.9 0.1h0.2v-0.5q-0.7 0-5.8-3q-0.5-0.3-1.1-0.5q-0.7-0.3-1.3-0.4q-0.6-0.2-1.3-0.2q-0.6-0.1-1.2-0.1q-2.8 0.1-2.8 1.1l-0.2 2.1l0.8 8.1v0.8h-0.2l-0.6-0.1q-0.7 0-1.1 1.5l0.2 0.6q-0.4 0.1-0.7 0.3q-0.3 0.1-0.7 0.2q-0.3 0.2-0.6 0.4q-0.3 0.2-0.6 0.4l0.2 0.2v0.1q0.8-0.3 0.8-0.8h0.2l1.7 1.7q1.5-0.1 1.5 0.4q-0.2 0.2-0.4 0.4q-0.2 0.3-0.3 0.6q-0.1 0.3-0.2 0.6q0 0.3 0 0.6q-0.5 0-1 0.2q-0.5 0.2-1 0.4q-0.4 0.2-0.9 0.5q-0.4 0.3-0.8 0.7l-1.1 0.4q-1.3-0.1-1.3-0.6q-0.1-0.4 1.1-0.7l-0.1-0.5h-0.1l-1.3 1.1q-2-1-2.2-4l2.9-1.7v-0.1l-0.5-0.2q-0.3 0.1-0.6 0.3q-0.3 0.2-0.6 0.4q-0.2 0.2-0.4 0.4q-0.3 0.3-0.4 0.5q-0.4 0-0.6-1.1v-2.5l0.4-0.3l1.5 0.4l0.4-0.2v-0.5q0-0.4-1.5-0.7l-0.7 0.2l-0.3-1q0-1.6 0.4-1.6l-0.5-2.3l-0.2-5.1q-0.1-0.3 1.4-0.7q0-0.3-1.5-0.4l0.1-1.2l-0.9-10.3l0.3-0.8l3.2 0.5v-0.2l-0.4-1.1h-0.2l-0.5 0.3l-0.3-0.5v-0.1l1.7-1.4q-1.5 0.1-1.6-1.6h-0.1q-0.2 0.2-0.4 0.3q-0.2 0.1-0.4 0.1q-0.2 0.1-0.4 0.1q-0.2 0.1-0.4 0.1v0.5q1.2 0.9 1.2 1.6q0 0.2-1.1 0.9q-0.4 0-0.8-2.6q0-0.3 0-0.6q0.1-0.3 0.2-0.5q0-0.3 0.2-0.5q0.1-0.2 0.3-0.4q-0.2-0.3-0.3-0.6q-0.2-0.2-0.3-0.5q-0.1-0.3-0.2-0.6q-0.1-0.3-0.1-0.6l-0.1-1q0.4-5.9 5.6-6.2q0.8-0.1 1.6-0.2q0.8-0.2 1.6-0.2q0.8-0.1 1.6-0.2q0.8 0 1.6-0.1q17.1-0.8 20.5 2.1zm-6.5 1.7l2.2 0.7q0 0.1-0.1 0.2q-0.1 0.1-0.1 0.2q-0.1 0.1-0.2 0.1q-0.1 0.1-0.2 0.1q-0.2-0.1-0.5-0.2q-0.2-0.1-0.4-0.2q-0.2-0.1-0.5-0.2q-0.2-0.1-0.5-0.1v-0.1zm1.8 2.8q3.2-0.8 3.9-1.5l1.1 2.6q-0.3 0-0.6 0.1q-0.2 0.1-0.5 0.2q-0.3 0.2-0.5 0.3q-0.3 0.1-0.5 0.3q-0.1-1.3-2.9-1.8zm-18 1.6q5.6-0.9 5.5-1.8h0.2v0.7q9.7 0.5 11.8 1.7q0 1.5 2.1 2.3q-0.9 1.9-1.2 6.8v0.2l-0.8-0.2l-0.1 0.1l-2.1 1v0.5h1.3q-0.1 0.3-0.8 0.7l-2.6-0.5l-0.3 0.3v0.2l0.5 0.4h0.2l-0.2 0.5v0.2l1.8-0.1l0.5 0.5v0.1l-1.4-0.2h-0.5l-0.3 0.3v0.4q0.1 0.3 0.8 0.6q0.2-0.1 0.5-0.2q0.2 0 0.4-0.2q0.2-0.1 0.4-0.2q0.2-0.2 0.3-0.3v0.5q0.1 1.1 1.7 1q0 0.2-0.2 0.4q-0.1 0.1-0.3 0.3q-0.1 0.1-0.3 0.1q-0.2 0.1-0.4 0.1h-2.5q-0.3-2-1.2-1.9q-0.5 0-0.5 0.3l0.1 1.7h-0.7v0.5l0.4 0.3l0.8-0.7h0.3q-0.1 1-1.3 1l-0.5 0.1q-0.6 0-0.9-2.9v-0.4h0.1l0.2 0.2l0.5-0.1q0.3 0 0.5-0.1q0.3-0.1 0.5-0.3q0.2-0.1 0.4-0.3q0.2-0.2 0.3-0.5q-0.3-0.3-0.7-0.6q-0.5-0.2-0.9-0.3q-0.5-0.2-0.9-0.2q-0.5-0.1-1 0l-8.5 0.6h-0.2q0-0.5-0.1-0.9q-0.2-0.5-0.3-0.9q-0.1-0.5-0.3-0.9q-0.2-0.4-0.4-0.9q0-0.2 0.8-0.5l-0.4-1l0.1-1.8q-0.1-0.6-0.6-0.6q0.2-0.5 0.3-1q0.2-0.6 0.2-1.1q0.1-0.6 0.1-1.1q0.1-0.6 0-1.1zm14.8-1.1l0.4-0.5h0.7q1.2-0.1 1.3 0.4l-0.5 0.2zm-20 4q0.6-2 2.1-2.1h0.3q-0.3 0.3-0.6 0.7q-0.2 0.3-0.4 0.7q-0.1 0.4-0.2 0.9q-0.1 0.4-0.1 0.9q-0.6-0.2-1.1-1.1zm-0.8 5.8q0-0.7 2.5-1.5h0.4q0 0.2 0.1 0.3q0 0.2 0.1 0.3q0.1 0.2 0.2 0.3q0.1 0.1 0.3 0.2l-3.3 0.3l-0.1 0.1l-0.2 0.1zm30.4 1.1q0.3-0.4 0.6-0.6q0.4-0.3 0.7-0.5q0.4-0.2 0.8-0.4q0.4-0.1 0.8-0.2h0.2v0.2l-0.2 0.2q-2.2 0.7-2.2 1.6v0.1l0.2 0.2h-0.2zm-30.9 1.8q0.1-0.8 0.6-0.9l1.3 0.1l-1.4 1.6q-0.3 0-0.5-0.8zm3.2 10.5l1.3-0.1v0.7l0.4 0.9h-0.2l-0.1 0.2q-0.3-0.1-0.5-0.3q-0.2-0.2-0.3-0.4q-0.2-0.2-0.4-0.4q-0.1-0.2-0.2-0.5zm-4.2 5.7l0.3-0.4h0.2q0.3 0.1 0.7 0.8l-0.3 0.4zm4 7.1h0.1q0.2 0.1 0.4 0.2q0.1 0.1 0.2 0.3q0.1 0.1 0.2 0.3q0.1 0.1 0.1 0.3q0.1 0.9-0.4 1l-0.4-0.8l-1.6 0.6h-0.2v-0.6q1.6-0.1 1.6-1.3zm2.1 2.1q0-0.2 0.1-0.3q0.1-0.2 0.3-0.3q0.1-0.1 0.3-0.1q0.2-0.1 0.4-0.1h0.3l0.3 0.3l0.1 0.9h-0.2zm31.8 4.2q5.9-0.2 5.9 0.5v0.2l-0.1 0.2v0.1h0.1q0.3 0 0.5-0.1q0.2-0.1 0.4-0.3q0.2-0.1 0.4-0.3q0.2-0.1 0.3-0.3l0.7-0.1l0.3 0.3l0.1 0.7q0 0.4-1.8 0.9l-0.1 0.2v0.1l0.3 0.3h0.2q0.1-0.1 0.2-0.2q0.1-0.1 0.3-0.1q0.1-0.1 0.3-0.1q0.1-0.1 0.3-0.1l0.3 0.3l0.3 4.7l-0.3 0.4h-0.8q-1.7 0.1-1.7-1h-0.4q-0.2 0.2-0.4 0.4q-0.3 0.2-0.5 0.4q-0.3 0.1-0.6 0.2q-0.2 0.2-0.5 0.2l-0.4 0.1l-0.3-0.3l0.3-0.9h-0.2l-1.3 0.4v0.2h0.4v0.3l-11.5 0.9l-6.2 0.4l-12 0.3v-0.2l0.9-2.5l-0.7-1.1l-0.1-0.2q1.2-0.1 2.1-1.9l1 0.9h0.5l0.3-0.3l-2-1.1v-0.3h1.8l20.9-2zm-39.4 7.9q0.1-0.8 0.5-0.8h0.6q0.5 0.1 0.9 1.1l-0.3 0.3h-0.3q-0.2 0-0.4 0q-0.2-0.1-0.4-0.1q-0.1-0.1-0.3-0.2q-0.1-0.1-0.3-0.3zm-5.4-3.1q0-0.8 1.1-1.1q1.8 0.1 1.9 0.4l-2.8 0.7zm10.7 0.6q0-0.3 0.8-0.4h0.2l-0.4 1.5q0.2 0.8 0.8 0.8v0.3l-1.1 0.2h-0.2v-0.8q0-0.5-1.2-0.4q0-0.3 1.1-0.8h0.2zm9.6 0.5l1.9-0.2q0.8-0.1 1 0.4q-0.2 0.2-0.5 0.5q-0.3 0.2-0.6 0.3q-0.3 0.2-0.6 0.3q-0.3 0.1-0.7 0.2h-0.1zm19.3-66.1l3.1-0.3q3.5 0.1 3.5 1.1l1.3-1.2l1-0.1l1.3 0.8l-0.3 0.7l0.5-0.1l0.3-0.8q0.4 0 1.7 1.6l4-2.4l1-0.4h0.8q1.8 0.3 1.9 1.2q1-0.4 2.1-0.7q1.1-0.3 2.2-0.6q1.1-0.2 2.2-0.3q1.1-0.1 2.3-0.2h0.4l15-0.4l1-0.1l3.2-0.3q0.2 0.2 0.3 0.4q0.1 0.2 0.2 0.5q0.1 0.2 0.1 0.5q0 0.3 0 0.5l0.3 5.3l-0.3 0.3l-1.7 0.1q-0.4 0-0.8 0q-0.4-0.1-0.8-0.2q-0.4-0.1-0.7-0.3q-0.4-0.2-0.7-0.5q-0.8 0.3-1.6 0.5q-0.8 0.3-1.6 0.4q-0.9 0.2-1.7 0.3q-0.9 0.1-1.7 0.1h-0.2l-11 0.3l-1.6 0.1l-0.2 0.1h-0.1l-0.1-0.1q3.4-3.3 5.9-3.4q-0.1-0.3-0.2-0.5q-0.2-0.2-0.4-0.4q-0.3-0.1-0.5-0.2q-0.3 0-0.6 0h-0.1l-1.2 0.2l0.1 0.2l0.7 0.8v0.5h-0.8q-0.3 0.1-0.6 0.2q-0.3 0.1-0.6 0.3q-0.2 0.2-0.5 0.4q-0.2 0.2-0.4 0.4h-0.5l-1.2-0.3l0.1 1.7l-0.3 0.3l-1.5 0.1l-0.3-0.3q0.6-0.3 0.6-0.5l-0.2-0.2v-0.2l-1.3 0.4l-0.5-0.3h-0.1q-0.3 0.1-0.4 1.5l-0.7 0.1l-4-0.3l-0.1 0.2l-0.4-0.5v-0.3q0-0.2 0.1-0.4q0-0.2 0.1-0.4q0.1-0.1 0.2-0.3q0.1-0.2 0.2-0.3h-0.2l-0.9 0.2l-0.4-1.6l0.3-0.3h-0.2l-3.7 0.5v0.2l1.2 1.1l-0.3 0.3h-0.2q-1.6 0.1-4.6-3.2q-0.2-0.2-0.4-0.3q-0.3-0.1-0.5-0.2q-0.2-0.2-0.5-0.2q-0.2-0.1-0.5-0.2q-0.3 1-0.6 1h-0.1l-1.8-0.2l-0.2 0.2v0.1l1.2 0.8l-0.5 0.4l-1.2-0.8h-0.3q0 0.2-0.1 0.4q0 0.2-0.1 0.4q0 0.2-0.1 0.4q-0.1 0.2-0.3 0.3l1.8-0.1q0.5 0 0.6 1q0.3 0 0.7-1.5h0.2l4.3 0.7q0.3 0.3 0.5 0.7q0.3 0.3 0.6 0.7q0.2 0.3 0.4 0.7q0.2 0.4 0.4 0.8l-0.1 0.1l-3.3 0.2v-0.1l0.8-1.2q-0.1-1.2-2.1-1.4q-1.1 0.2-1.1 0.5q2.6 0.5 2.7 1.1l-0.3 0.3l-2.2 0.1q0.1 0.3 1.4 0.4v0.4l-0.3 0.3l-1.4-0.3l-3.7 0.4q-0.7-0.2-0.7-0.5l-0.1-1.6l0.1-1.1l-0.2-1.5l-0.1-2.3l0.3-0.4zm7.4 0.5l0.5-0.2l1.8 0.7q0.1 1.2 1.1 1.1v0.2q-0.2 0-0.4 0.1q-0.1 0-0.3 0.1q-0.1 0.1-0.2 0.2q-0.1 0.2-0.2 0.3h-0.4v-0.2q-1.9-1.5-1.9-2.3zm9.7 0l0.8-0.6h0.3l1 0.9l-1.4 0.8l-0.7-1zm-0.6 0.9l1.1 0.2v0.2l-0.4 0.2q0 0.3 0.5 0.3v0.3l-0.7 0.1q-0.1-0.1-0.2-0.2q-0.2 0-0.3-0.1q-0.1-0.1-0.2-0.3q-0.1-0.1-0.1-0.2zm44.1-3h0.1q0-0.8 3.6-1.5h1.1q0.3-0.1 0.6 0q0.2 0 0.5 0.1q0.2 0.1 0.5 0.2q0.2 0.2 0.4 0.4q0.4-0.3 0.8-0.4q0.4-0.2 0.8-0.3q0.4-0.2 0.8-0.2q0.4-0.1 0.8-0.1l11.7-0.5q1.1 2 2.1 1.9l-0.1-0.3l-0.5-1.3q0.2-0.1 0.3-0.2q0.2-0.1 0.4-0.2q0.3-0.1 0.5-0.1q0.2-0.1 0.4-0.1h0.8l4.6 0.2l1.3-0.4l0.4 6.9l-0.2 0.2v0.1l-20 0.9l-20 1.1l-1.1 0.2q-0.7-1.1-3.2-1.5v0.5q0 0.3 1 0.6l0.1 0.3l-2.6 0.3l-7.8 0.3l-0.1 0.2l-0.2-0.2v-3.1l-0.4-3.9l0.2-0.2l21.8-1.2q0.3 0 0.6 1.3zm-42.2 4.5q0.1-0.2 0.2-0.4q0.1-0.2 0.3-0.3q0.2-0.1 0.4-0.2q0.3-0.1 0.5-0.1h0.3q-0.1 0.2-0.3 0.4q-0.1 0.2-0.2 0.4q-0.1 0.3-0.1 0.5q-0.1 0.2-0.1 0.5h-0.2q0-0.7-0.8-0.6zm-5.3 2.1l0.5 0.4v0.5l-0.3 0.4h-0.3l-1.4-0.8q0.1-0.1 0.3-0.2q0.1-0.1 0.2-0.1q0.2-0.1 0.3-0.1q0.2-0.1 0.3-0.1zm21.9 3.8q5.4-0.1 6.3 1.5v0.1l-0.3 0.4l-0.8-0.5h-0.3v0.4q0.5 2.6 2.1 2.5v0.1q-0.5 3-5.1 3.3l-6.6 0.1v-0.3q0.1 0 0.2 0q0 0 0.1 0q0.1 0 0.1-0.1q0.1 0 0.1-0.1q0.1 0 0.1-0.1q0 0 0-0.1q0.1-0.1 0.1-0.1q0-0.1-0.1-0.2h-0.1q-0.4 0.3-0.8 0.5q-0.5 0.2-0.9 0.4q-0.5 0.1-0.9 0.2q-0.5 0.1-1 0.1h-0.3l-7.6-0.1q-2.7 0.2-2.7 1.3l0.5 3.9q0.1 1.5-1.2 1.6q0.3 0.3 0.5 0.7q0.2 0.4 0.3 0.8q0.1 0.4 0.2 0.9q0.1 0.4 0.2 0.8q-0.1 0.6-0.2 1.2q-0.1 0.6-0.3 1.1q-0.2 0.6-0.4 1.1q-0.3 0.6-0.5 1.1h0.1q1.1 0 1.9-2.7l0.1-0.2h1q0.6 0 1.2 0q0.6 0.1 1.2 0.2q0.6 0.1 1.2 0.2q0.6 0.1 1.2 0.3l1.5-0.4v0.2l-0.2 0.5l1.9 1.2v0.3l-0.1 0.2v0.1l0.1 0.2h0.4q0.2 0 0.7-1.4h0.3v-0.2q-0.3-0.1-0.6-0.1q-0.3-0.1-0.6-0.2q-0.3 0-0.6 0q-0.3 0-0.7 0v-0.4q0.9-0.3 1.9-0.6q0.9-0.3 1.9-0.5q0.9-0.2 1.9-0.3q1-0.2 2-0.3q5-0.2 7.1 2q0.2 0.1 0.3 0.3q0.2 0.3 0.2 0.5q0.1 0.2 0.2 0.4q0.1 0.3 0.1 0.5v0.2q0.2 3.3-4.1 3.5l-1.8 0.1l-0.3-0.3l-0.1-0.2q0-0.9 1.4-2.4h-0.3q-2.1 0.6-2.1 1.8l0.2 1l0.1 0.1l-3.5-0.1l-9.7 0.8l-3.1 0.2l-0.3 0.3l0.1 1.5l-0.6 0.7l-1.2-0.9h-0.5q-0.2 0.1-0.3 0.3q-0.2 0.2-0.3 0.4q0 0.2-0.1 0.4q-0.1 0.2-0.1 0.4l0.4 0.3v0.2q-0.5 0.2-1.1 0.4q-0.5 0.2-1 0.3q-0.6 0.2-1.2 0.3q-0.5 0.1-1.1 0.2l-2.3-0.2v-0.2l0.2-1.8l-0.6-2.4v-1l0.1-0.2v-0.1l1.2 0.1h0.3q0.7-0.1 1.5-3.2l1-0.3l1.8 0.6q0.1-0.2 0.2-0.3q0.1-0.2 0.2-0.4q0.1-0.2 0.1-0.4q0.1-0.2 0.1-0.4l-0.1-0.5q0-1.6-2-2.2h-0.2v0.2q0.2 0 0.3 0q0.2 0.1 0.3 0.2q0.1 0 0.2 0.1q0.1 0.2 0.2 0.3q0 0.3-0.9 0.4v0.1l0.8 0.8v0.2q-1.1 0-3.9 3.8h-0.1l-1.2-0.4v-2l-0.2-4.1l-0.6-9.2q0-0.5 1.6-1.4l-0.1-0.5l-1.5-1l0.3-0.4h0.7l1.8 0.5l0.6-0.3q0-0.4-1-1l-0.2 0.2l-1.4 0.1q-0.4 0-0.6-0.6q1.3-3.4 5.4-3.6l2.2-0.1q0.7 0 1.4 0q0.8 0 1.5 0.1q0.7 0 1.4 0.2q0.7 0.1 1.5 0.2q0.3-0.2 0.7-0.4q0.4-0.2 0.8-0.3q0.4-0.1 0.8-0.2q0.5-0.1 0.9-0.1q0.3 0 0.7 0.1q0.4 0.1 0.7 0.1q0.4 0.1 0.7 0.2q0.4 0.2 0.7 0.3q1-0.1 1-0.7h0.3q0.1 0.2 0.2 0.5q0.2 0.2 0.4 0.4q0.3 0.1 0.5 0.2q0.3 0.1 0.6 0.1h0.5l0.3-0.4l-0.8-0.4l-0.1-0.4q0.7-0.1 1.4-0.2q0.6-0.2 1.3-0.2q0.7-0.1 1.4-0.2q0.6-0.1 1.3-0.1zm-25.9 3.1q0.1-0.2 0.4-0.4q0.2-0.2 0.5-0.3q0.3-0.1 0.6-0.2q0.3 0 0.5 0l3 0.5v0.2l-0.8 0.2h-4.1zm17.7-1.2l2.2 0.5v0.2l-0.3 0.3l-2.2-0.4v-0.1zm-4.9 2.7l0.8-0.2l0.9-0.1q0.5 0 0.6 0.8h0.3v-0.3h0.2v0.1q-0.2 0.3-0.4 0.5q-0.2 0.2-0.5 0.3q-0.2 0.1-0.5 0.2q-0.3 0.1-0.6 0.1q-0.2-1.3-0.8-1.3zm-11.5 3.8l1 0.1h0.1l0.2-0.2l0.2 1.5q-1.5-0.4-1.5-0.8zm3.2 16.1q0.9 0 3.5-1.9l0.8 0.4q0 0.3-1.3 0.6q0 0.1 0.1 0.3q0 0.2 0.1 0.3q0.1 0.2 0.3 0.3q0.1 0.1 0.3 0.2l1.3-0.1v0.3q-0.1 0.4-0.8 0.7h-1.8h-0.2l-0.1 0.1l0.3 0.8l0.1 0.2l-1.7-0.2v0.1l-0.1 0.2v0.8l-1.2-0.4l0.1-2.5v-0.1zm14-1.4l0.5-0.2l2.2 1h0.1q0.1 1.1-1.5 1.6h-0.2v-0.2l0.3-1.5q-0.3-0.6-1.4-0.6zm-11.6 1.3v0.6q-0.1 0.5-0.9 0.6l-1.3 0.1v-0.4q0.1-0.2 0.4-0.4q0.2-0.2 0.5-0.4q0.2-0.1 0.5-0.2q0.3-0.1 0.6-0.1zm1.7 6.2l0.3 0.3l0.2 3.3q0.2 3.5-0.8 4.3q0.2 0.4 0.4 0.8q0.2 0.3 0.6 0.6q0.3 0.2 0.8 0.3q0.4 0.2 0.8 0.1q0.8-0.1 1.7-0.1q0.8 0 1.6 0.1q0.8 0 1.7 0.2q0.8 0.1 1.6 0.3q0.2-0.7 1.4-0.7l0.7-0.1l2.6 0.2v-0.1l0.5-0.7l4.9-0.3q6.6-0.3 8.3 2.4l0.2 0.8q0.3 4.6-5.9 4.9l-2.3 0.1q-1.2 0.1-2.4 0q-1.2 0-2.4 0q-1.1-0.1-2.3-0.2q-1.2-0.1-2.3-0.3q-0.8 0.3-1.7 0.5q-0.8 0.2-1.6 0.3q-0.9 0.2-1.7 0.3q-0.9 0.1-1.7 0.1l-3 0.2q-8 0.4-8.1-2.4q-0.2-0.6-0.4-1.2q-0.1-0.7-0.2-1.3q-0.1-0.6-0.2-1.3q-0.1-0.6-0.2-1.2l-0.1-2.2q0-0.5 0-1.1q0.1-0.6 0.1-1.1q0.1-0.6 0.2-1.2q0.1-0.5 0.3-1l-0.8-0.8l-0.1-0.8l0.2-0.2v-0.2q0.2 0.1 0.5 0.2q0.3 0 0.5 0q0.3 0.1 0.6 0.1q0.2 0 0.5-0.1h1.6q3.4-0.2 4.6-1.8zm-6 8.7q-0.1-2.8 2.5-2.9q-0.5 2.8-2.3 2.9zm5.7 3.8l0.5-0.2l1.4 0.3q-1.4 2.5-1.9 2.6l-0.1-0.2l0.6-0.9l-0.1-0.9l-0.3-0.5zm18.3 1.5l0.8-0.2l0.6-0.1l0.1 1.2l0.4 0.5v0.1l-0.5 0.1q-0.2-0.2-0.4-0.4q-0.2-0.1-0.4-0.3q-0.2-0.2-0.4-0.5q-0.1-0.2-0.2-0.4zm15 4.9q0.3 0.1 0.6 0.2q0.3 0.2 0.5 0.4q0.3 0.2 0.5 0.5l-0.3 1.4l0.7 4v0.5l-0.3 0.5q-9.8 0.4-9.9-0.4l0.7-0.6h1.3q-0.1-0.9 0.3-0.9l1 0.8h0.5l0.4-0.7l0.2-0.2h0.2q1.2 1.4 2 1.4l0.5-0.2v-0.5q-1.5 0.1-1.6-1.2l-1.6 0.2l-5.3 0.3l-0.8-0.1v-0.4l1-0.2v-0.1q-0.1-0.4-1.2-0.8q-1.1 2.4-1.9 2.6v0.1l0.4 0.7q0 0.2-0.1 0.3q-0.1 0.2-0.3 0.3q-0.1 0.1-0.3 0.2q-0.2 0.1-0.4 0l-0.3 0.1l-2.7-0.2h-1.3l-0.1 0.2h-0.2l-0.2-0.1v-0.2q0-0.4 1.8-0.9v-0.3h-0.2q-0.4 0-0.8 0.1q-0.3 0.2-0.7 0.4q-0.3 0.2-0.6 0.5q-0.2 0.2-0.4 0.6h-0.2l-20.8 1.2h-8.1v-0.4q0.5-0.2 1.1-0.5q0.5-0.2 1-0.4q0.6-0.2 1.2-0.3q0.5-0.1 1.1-0.1l0.8-0.1q0.6 0 1.1 0q0.6 0.1 1.1 0.1q0.6 0.1 1.2 0.2q0.5 0 1.1 0.1q-0.4-0.3-0.9-0.6q-0.4-0.3-0.9-0.4q-0.5-0.2-1-0.2q-0.6-0.1-1.1 0h-0.5q-0.5 0.1-1.1 0.2q-0.5 0.1-1.1 0.3q-0.5 0.1-1.1 0.3q-0.5 0.2-1 0.4q-1.2-0.3-1.2-0.6l-0.3-4.6l0.3-0.3l7.4-0.4l0.4 0.3h-0.2q0.5 1.1 0.7 1.1h0.3q3.2-0.2 3.1-1.6h0.3l1.4 1h0.1q1.1-1.2 3.9-1.3h2.2l1.4-0.2l0.2 0.1v0.4l-0.3 0.5v0.1q0.2 0 0.4 0q0.1 0 0.3 0.1q0.2 0 0.3 0.1q0.2 0 0.3 0.1l0.5-0.2v-0.3h-0.5v-0.3q1.1-0.2 2.2-0.4q1.1-0.2 2.3-0.3q1.1-0.2 2.2-0.3q1.1-0.1 2.3-0.2l12.1-0.3l0.1 0.7q-1 0.2-1 0.5h0.2q0.5-0.3 1.1-0.6q0.6-0.3 1.3-0.6q0.6-0.2 1.2-0.4q0.7-0.2 1.4-0.3q0.3 0 0.6 0.1zm-36.9 3.6l1.4-0.4h0.2l0.2 0.2l-0.8 0.7l0.6 1.4v0.2q-1.9-1-1.9-2.1zm16.4 1.3q0-0.4 1-0.5q0.2-1 0.4-1l0.4-0.1q1.6 0.1 1.7 0.9v0.2l-1.7 0.1l-1.7 0.6zm-13.1 2.5q0-0.6 1.8-0.9h0.3l0.5 0.4l0.1 0.4zm3.1 0.1q0-0.1 0.1-0.3q0.1-0.1 0.2-0.2q0.2-0.1 0.3-0.2q0.2 0 0.3 0l1.3-0.1l0.1 0.2q-0.1 0.5-1 0.5zm16.4-0.3l0.5-0.2h0.3l-0.4 0.5zm6.5-63.6q-0.1-1.5 1.7-1.9q0.3 0 0.5 0.8q0 0.4-2.1 1.1zm4.9-2.7l1.5 0.2v0.2l-0.6 1h-0.4q-0.3 0-0.5-0.9zm-7.4 2.3l1.4-0.4l0.1 1.2h-1.2l-0.3-0.3zm36.3-0.4l1.7-1.4l0.4 0.8q-0.2 0.2-0.4 0.4q-0.2 0.1-0.4 0.3q-0.2 0.1-0.5 0.1q-0.2 0.1-0.5 0.1zm4.2 0.6l2.1-0.8v1.2h-0.6l-1.9-0.2q-0.5 0-0.4 1h-0.3l-0.2-0.1l0.3-1.2l0.8 0.1zm-23.4 2.5q0.8-1.1 1.5-1.2l0.6 0.3q0.1 0.8-1.4 0.9zm28.2 5.3v0.5q0 0.5-0.1 1q-0.2 0.5-0.4 0.9q-0.2 0.5-0.5 0.9q-0.4 0.4-0.8 0.7l-2.5-0.5l-0.8 0.2l0.1 0.3h0.3v0.2l1.1-0.3h1v0.2q0.1 0.7-3.2 1h-1.2l-0.3-0.3v-0.2q0.1-0.6 1.4-0.7v-0.2q-0.5 0-1-0.1q-0.5-0.1-1-0.2q-0.5-0.2-1-0.3q-0.5-0.2-1-0.5q-0.2 2.4-1.7 2.4l-3.4 0.7l-0.2-0.2l1.6 29.2l-2.1 0.8h-0.2l-0.2-0.2h-0.1v0.2q0 0.1 0.2 0.3q0.1 0.1 0.2 0.2q0.1 0 0.3 0.1q0.1 0 0.3 0l1.5-0.4l0.1 0.2l0.1 1.9q0 0.3-0.4 0.4q0.1 0.2 0.2 0.4q0.2 0.2 0.2 0.4q0.1 0.2 0.2 0.5q0.1 0.2 0.1 0.4q0.1 2.5-0.7 2.5l-3.6-0.1h-0.5v0.2q0.8 0.1 0.9 0.4l-0.7 0.9h0.2l2.1-0.9l0.8-0.1l0.4 0.3q-0.3 0.4-0.6 0.7q-0.4 0.4-0.7 0.6q-0.4 0.3-0.9 0.4q-0.4 0.2-0.9 0.3h-0.6q-5-1.1-5.2-5.8l-0.1-1q-0.1-1.3 0.9-1.3l0.7-0.1q-0.4-0.3-0.7-0.6q-0.3-0.4-0.5-0.8q-0.2-0.4-0.3-0.9q-0.2-0.4-0.2-0.9q0-0.4 0.1-0.9q0-0.4 0.1-0.8q0.1-0.5 0.2-0.9q0.1-0.4 0.3-0.9q-0.3-0.8-0.4-1.7q-0.2-0.9-0.4-1.7q-0.1-0.9-0.2-1.8q-0.1-0.9-0.2-1.8l-0.7-16.7q-1.1-0.7-6.8-0.4l-2.1 0.1q-5.8 0-5.9-2q-0.3 0-0.4-0.8v-0.7q-0.1-2.4 1.2-3.3q0.5-0.2 1-0.4q0.6-0.1 1.1-0.2q0.6-0.1 1.1-0.2q0.6-0.1 1.1-0.1l6.4-0.2l0.2-0.2v0.2l-0.3 0.5q1.4 0.8 1.4 1.3l-0.2 0.5l0.2-0.1l3.2-1.8l0.4 0.8q1.6-0.3 1.5-1.7h0.5v0.1l2-0.2l2.1-0.1l5.1-0.5q11.6-0.6 11.8 2.9zm-17.9 0.7q-0.1-1.6 3.3-2.8q-1.2 4.1-2.9 4.1l-0.5 0.1v-0.2l0.5-0.2zm-4.9 0.4q0-0.3 0.8-0.5l1.8 0.4q0.1 0.8-1.4 0.9h-0.3l0.1-0.8zm16.3 0.8q0.1-0.3 0.4-0.5q0.2-0.2 0.4-0.4q0.3-0.1 0.5-0.2q0.3-0.1 0.6-0.2l0.5 0.2q-1.1 1.3-1.7 1.4zm-23.4 3q0.7-1.8 2.1-1.9q0.7 0.3 0.8 0.6v0.3l-0.9 0.1q-0.2 0.1-0.4 0.3q-0.2 0.1-0.5 0.3q-0.2 0.1-0.4 0.2q-0.3 0-0.5 0.1zm8.8 0.8q1.1 0 1.2 1l-0.3 0.8l0.1 0.2q2.8 0.2 2.9 1l-0.3 0.3q-0.4-0.3-0.8-0.5q-0.4-0.2-0.8-0.3q-0.4-0.1-0.9-0.2q-0.4 0-0.9 0l0.3-0.5l-0.5-1.6zm-0.1 4.3h0.1l2.9 1.1q-0.1 0.4-0.8 0.7l-1.8-0.2l0.1-0.8v-0.4q0-0.3-0.5-0.3zm0.3 3.8l2.4 0.7v0.2l-1.6 0.4h-0.2v-0.2h0.3v-0.3q0-0.5-1-0.5v-0.1zm0.8 2.4h0.5l2.8 1.1v0.7l-0.1 0.2l-1.3-0.3l-0.3 0.4q-0.4-0.1-0.6-0.3q-0.3-0.2-0.5-0.5q-0.2-0.2-0.4-0.5q-0.1-0.3-0.1-0.6zm-0.7 11.3h0.8q1 1.3 1.4 1.2l-0.5 0.6q-0.3 0-0.5-0.1q-0.3 0-0.5-0.1q-0.3-0.1-0.5-0.2q-0.3-0.1-0.5-0.2zm2.8 3.3l1.6 0.1l-0.3 0.7l-1.6-0.1zm-3.5 3l0.5-0.6l2.8-0.1v0.5q-2 0.1-1.9 0.9q-0.1-0.2-0.3-0.3q-0.1-0.2-0.3-0.3q-0.2 0-0.4-0.1q-0.2 0-0.4 0zm-5.6 14.6q0.9-0.1 1.8 0q0.9 0 1.7 0q0.9 0.1 1.8 0.2q0.9 0.1 1.8 0.2q1.4-0.3 2.8-0.6q1.4-0.2 2.8-0.4q1.4-0.2 2.8-0.3q1.4-0.1 2.8-0.1q8.6-0.4 17.9-0.4l-0.1 1.6l0.3 1.6l-0.8 0.9q0.3 0.1 0.4 0.2q0.2 0.1 0.4 0.3q0.1 0.2 0.2 0.4q0.1 0.3 0.1 0.5v1l-0.3 0.3l-24.6 1.3v-0.1l0.3-0.6l-0.5-0.4q0 0.2-0.1 0.4q-0.1 0.2-0.3 0.3q-0.2 0.2-0.4 0.3q-0.2 0-0.4 0q-0.4 0-0.7-0.1q-0.3 0-0.6-0.2q-0.3-0.1-0.5-0.2q-0.3-0.2-0.6-0.3q0.1 1.1-1.6 1.2l-1.9 0.1l-0.4-0.3v-0.7l0.3-0.5v-0.1h-0.3q-0.3 0-0.6 1.7l-4.5-0.1q-5.5 0.6-14.5 1.1h-1.5l-0.3-0.3l-0.1-1.8q-0.1-0.5 0.9-0.5q-0.2-0.3-0.4-0.7q-0.2-0.3-0.4-0.7q-0.1-0.3-0.2-0.7q-0.1-0.4-0.1-0.8l-0.1-1.3q0-0.4 0.5-0.4l17.2-1.1zm4.3 0.6q2.7 0.9 2.7 1.4v0.1h-0.2l-1.3-0.4l-0.5 0.5q-0.4 0-0.7-1.2zm-5.4 2.4q-0.1-0.6 1.5-1.2h0.2q-0.1 0.2-0.2 0.4q-0.1 0.2-0.2 0.4q-0.2 0.2-0.3 0.4q-0.2 0.1-0.4 0.3h-0.1zm-9.5 1h0.1l0.3 1.1v0.3l-0.5 0.1q-0.7-0.8-1.2-0.8v-0.2h0.2l0.6 0.2q0.5-0.1 0.5-0.7zm10.4 1.6l0.5-0.5l0.3-0.1q1.8 0 1.8 0.4v0.2q0.1 0.3-0.7 0.5q-1.9-0.2-1.9-0.5zm28.4-67.7l52.6-2.9v0.1l-0.1 1.2l0.8 5.4q-1.7 0.2-3.4 0.5q-1.7 0.2-3.5 0.4q-1.7 0.1-3.4 0.3q-1.7 0.1-3.4 0.1l-13.7 0.3v-0.2q1.1-1 1.1-1.4l-0.2-0.6h-0.2l-1.6 2.5l-4.1 0.3l-0.4-0.4q0-0.4 2-0.7l-0.1-0.3q-0.4 0-0.8 0.1q-0.5 0.1-0.8 0.2q-0.4 0.2-0.8 0.5q-0.3 0.3-0.6 0.6l-16.2 0.9q-0.4 0-0.6-0.8q-0.2 0.2-0.5 0.4q-0.3 0.2-0.7 0.3q-0.3 0.1-0.6 0.2q-0.4 0-0.7 0l-3.8 0.2q-0.5-0.1-0.6-1.2l-0.2-3.8l-0.2-2l0.1-0.1zm12.5 0.1h1q0.3 0 0.6 0.9q-0.4 1.2-0.8 1.2h-0.3l-0.2-0.1l0.1-0.8v-0.7zm17.4 0.7l1.2-0.4v0.2q2.3 0.7 2.4 1.4q-3.5-0.5-3.6-1zm-6.6 7.6q16.1-0.9 22 10.2l0.1 0.4l-0.7 0.7q0.1 0.5 1.7 0.9q0.5 1.2 0.9 2.4q0.4 1.2 0.7 2.5q0.2 1.2 0.4 2.5q0.1 1.3 0.2 2.5q0.7 13-6.2 20.4q-0.2 0.3-0.5 0.5q-0.2 0.3-0.5 0.5q-0.3 0.2-0.7 0.3q-0.3 0.2-0.6 0.3q-0.7-0.1-1.3-0.3q-0.6-0.1-1.3-0.1q-0.6-0.1-1.3-0.1q-0.6-0.1-1.3 0l-0.6 0.2l0.2 0.1v0.3l-0.3 0.5v0.2l0.3 0.3h0.9v0.2q-1.3 2.5-7 2.8q-11.5-0.4-12.7-2v-0.3l0.1-0.5h-0.2q-2.1 0.1-6.9-4.1q-1.3-1.6-2.3-3.3q-1-1.8-1.7-3.7q-0.7-1.9-1.1-3.9q-0.4-2-0.5-4.1v-1.6q-0.7-12.6 7.4-20.4q1-0.8 2-1.5q1-0.6 2.2-1.1q1.1-0.4 2.3-0.7q1.2-0.3 2.4-0.3l0.2 0.1v0.2q0 0.8-1.3 1.9l0.1 0.3h0.1q1.8-0.1 1.7-2.7l0.5-0.4zm-0.4 1.8h1.3q0.8-0.1 1 0.4v0.3q-0.1 0.2-0.2 0.4q-0.1 0.1-0.2 0.2q-0.2 0.1-0.4 0.1q-0.1 0.1-0.3 0.1h-1.2zm-11.8 6.6q0.1-0.3 0.3-0.5q0.1-0.2 0.4-0.4q0.2-0.1 0.4-0.2q0.2-0.1 0.5-0.2h0.5q0.1 1.1-1.9 1.2zm1.5 16.4q0-1 0-2q0-0.9 0.1-1.9q0.2-1 0.3-2q0.2-0.9 0.5-1.9q2.6-9 11.3-9.4h0.2q8.1-0.5 11.9 7.4l1-0.4h0.3l-0.2 2l1.1 8.9v1l-0.1 3.2q0 0 0 0.1q0 0.1 0 0.1q0 0.1 0.1 0.1q0 0.1 0.1 0.1q0 0.1 0.1 0.1q0 0 0.1 0.1q0.1 0 0.1 0q0.1 0 0.2 0v0.1q-2.7 1.5-2.6 4v0.4l0.2 0.2q-3.7 2.4-3.6 4.1l-0.6-0.3q-2.8 0.5-2.7 2.1q-6.5 0.4-14.7-3.9l0.3-1.2v-0.2l-1.5-2.7l-5.2 1.9h-0.1q0.3-0.4 0.7-0.8q0.4-0.3 0.9-0.6q0.5-0.3 1-0.5q0.5-0.1 1-0.2l1.2-0.1l0.2-0.2q-0.4-0.9-0.6-1.8q-0.3-1-0.5-1.9q-0.2-1-0.3-2q-0.1-0.9-0.2-1.9zm26-12.2q-0.1-0.5 1.6-0.7l2.3 0.2v0.1l-2.3 1zm-34.4 9.7q0.2-0.7 0.4-0.7h0.2q1.3 1 1.8 1l0.1 0.2l-0.2 0.2zm5.1 1h0.2l1.4 1.1l-0.3 0.3l-1.8 0.1l-0.2-0.1l0.1-0.5q0.7-0.5 0.6-0.9zm28.7 19.2q-0.1-0.4 0.9-0.5l0.8-0.1l0.4 0.3v0.5h-0.3l-1.4-0.2h-0.3l-0.1 0.2zm-6.5 8.2l2.8-0.3l1.2 1.2h0.6q0.7-0.4 1.4-0.7q0.7-0.3 1.4-0.5q0.8-0.2 1.5-0.3q0.8-0.1 1.6-0.1l13.7-0.6l0.2-0.2l0.2 0.5l-0.1 2l0.4 3.6v0.8q0 0.3-1.1 0.6l-26.7 1.2l-6.7 0.4l-0.1-0.4q0.7 0 0.7-0.5q0-0.3-0.9-0.4q-0.3 0-0.5 0.2q-0.3 0.1-0.6 0.3q-0.2 0.2-0.4 0.4q-0.2 0.2-0.4 0.5h-1.1l-19 1.2l-0.7-0.3l0.1-1.5l-0.4-4.9q0-0.5 11.6-1.3zm-11.6 4.4q0-0.4 1.6-0.7v0.3q-0.1 0.2-0.2 0.4q-0.1 0.1-0.3 0.2q-0.2 0.2-0.4 0.2q-0.2 0.1-0.4 0.1h-0.3z"/></svg>